<?xml version="1.0" ?><svg xmlns="http://www.w3.org/2000/svg" xmlns:xlink="http://www.w3.org/1999/xlink" version="1.1" viewBox="0 0 512 512" style="enable-background:new 0 0 512 512;" xml:space="preserve"><style type="text/css">
	.st0{fill:#231A15;}
	.st1{fill:#FFE000;}
	.st2{fill:#BCA100;}
	.st3{fill:#FC0000;}
	.st4{fill:#AA0000;}
	.st5{fill:#F94343;}
	.st6{fill:#FFFFFF;}
	.st7{fill:#A58E07;}
	.st8{opacity:0.44;}
	.st9{fill:#756204;}
	.st10{opacity:0.64;}
	.st11{opacity:0.38;}
	.st12{fill:#5D5004;}
	.st13{fill:#B7A100;}
	.st14{fill:#1D4DFC;}
	.st15{fill:#143CAF;}
	.st16{opacity:0.59;}
	.st17{opacity:0.52;}
	.st18{fill:#FF7F1F;}
	.st19{fill:#C4570C;}
	.st20{fill:#B29904;}
	.st21{fill:#87720A;}
	.st22{fill:#DDDDDD;}
	.st23{opacity:0.51;}
	.st24{fill:#878787;}
	.st25{fill:#727272;}
	.st26{opacity:0.33;}
	.st27{opacity:0.46;}
	.st28{fill:#25CBF2;}
	.st29{fill:#0A8FA5;}
	.st30{opacity:0.58;}
	.st31{fill:#04889E;}
	.st32{fill:#035A63;}
	.st33{opacity:0.65;}
	.st34{opacity:0.39;}
	.st35{fill:#AB0000;}
	.st36{fill:#1987A1;}
	.st37{fill:#3F1F0A;}
	.st38{fill:#4DEEFF;}
	.st39{fill:#21B9C1;}
	.st40{fill:#BBF9FF;}
	.st41{fill:#64ACAF;}
	.st42{fill:#089FB7;}
	.st43{opacity:0.47;}
	.st44{opacity:0.42;}
	.st45{fill:#DBF7FC;}
	.st46{fill:#B2E7ED;}
	.st47{fill:#0FA2BA;}
	.st48{opacity:0.54;}
	.st49{fill:#8E7716;}
	.st50{fill:#191401;}
	.st51{fill:#382E02;}
	.st52{fill:#605106;}
	.st53{fill:#AFACA0;}
	.st54{fill:#BC0404;}
	.st55{fill:#750000;}
	.st56{fill:#A08B0D;}
	.st57{fill:#5B4C05;}
	.st58{opacity:0.4;}
	.st59{opacity:0.5;}
	.st60{fill:#FF8383;}
	.st61{fill:#FFF0A6;}
	.st62{fill:#E2C227;}
	.st63{fill:#AA9205;}
	.st64{fill:#FFEA71;}
	.st65{opacity:0.22;}
	.st66{fill:#B19B00;}
	.st67{fill:#1989A4;}
	.st68{fill:#13A0B7;}
	.st69{fill:#C4A805;}
	.st70{fill:#FFF3A9;}
	.st71{fill:#846E03;}
	.st72{fill:#2D2502;}
	.st73{opacity:0.36;}
	.st74{fill:#4DD307;}
	.st75{fill:#328402;}
	.st76{fill:#97FF5A;}
	.st77{fill:#7A6500;}
	.st78{fill:#246001;}
	.st79{fill:#359100;}
	.st80{fill:#968022;}
	.st81{fill:#4F420B;}
	.st82{fill:#FFED83;}
	.st83{fill:#BAA335;}
	.st84{fill:#8D0991;}
	.st85{fill:#4B044F;}
	.st86{fill:#CE15CE;}
	.st87{fill:#897502;}
	.st88{fill:#493D01;}
	.st89{fill:#C9C9C9;}
	.st90{fill:#2D280E;}
	.st91{fill:#378C06;}
	.st92{fill:#183A03;}
	.st93{fill:#94FF55;}
	.st94{fill:#2E7F04;}
	.st95{fill:#63AB39;}
	.st96{fill:#AA5F04;}
	.st97{fill:#633502;}
	.st98{fill:#EF9014;}
	.st99{fill:#A05A07;}
	.st100{fill:#05616B;}
	.st101{fill:#033335;}
	.st102{fill:#0E94AA;}
	.st103{fill:#035D66;}
	.st104{opacity:0.27;}
	.st105{opacity:0.43;}
	.st106{fill:#FFF203;}
	.st107{fill:#FFA300;}
	.st108{fill:#2B3030;}
	.st109{opacity:0.28;}
	.st110{fill:#FCD17A;}
	.st111{fill:#AF853A;}
	.st112{opacity:0.31;}
	.st113{fill:#B641FF;}
	.st114{fill:#700FBC;}
	.st115{fill:#F2D0B1;}
	.st116{fill:#AF835F;}
	.st117{fill:#C17540;}
	.st118{fill:#F2BA94;}
	.st119{fill:#592909;}
	.st120{fill:#2B1204;}
	.st121{fill:#894818;}
	.st122{fill:#512609;}
	.st123{fill:#FF7F15;}
	.st124{fill:#A04A0A;}
	.st125{fill:#B7865E;}
	.st126{fill:#70350E;}
	.st127{fill:#3A1805;}
	.st128{fill:#C1521B;}
	.st129{fill:#FFC7AE;}
	.st130{fill:#FF717F;}
	.st131{fill:#6E2F0F;}
	.st132{fill:#AC8675;}
	.st133{opacity:0.25;}
	.st134{opacity:0.32;}
	.st135{fill:#FFFCC5;}
	.st136{fill:#D1CA78;}
	.st137{fill:#D37733;}
	.st138{fill:#A04F18;}
	.st139{fill:#0ABFBA;}
	.st140{fill:#057F79;}
	.st141{fill:#15F9F9;}
	.st142{fill:#09B2AD;}
	.st143{fill:#B2B2B2;}
	.st144{fill:#FFF755;}
	.st145{fill:#BCB121;}
	.st146{fill:#F90368;}
	.st147{opacity:0.49;}
	.st148{fill:#B50857;}
	.st149{fill:#FF76B4;}
	.st150{fill:#F23091;}
	.st151{fill:#FFF800;}
	.st152{fill:#C9BF05;}
	.st153{fill:#FF8500;}
	.st154{fill:#A35507;}
	.st155{fill:#AA6E50;}
	.st156{fill:#723C25;}
	.st157{fill:#EAD4B9;}
	.st158{fill:#AA8D6F;}
	.st159{fill:#B7A8A5;}
	.st160{fill:#84726F;}
	.st161{fill:#77645F;}
	.st162{fill:#51403C;}
	.st163{fill:#EABBA7;}
	.st164{fill:#BC7F69;}
	.st165{fill:#7C5039;}
	.st166{fill:#442619;}
	.st167{fill:#B7AE04;}
	.st168{fill:#BAB108;}
	.st169{fill:#7A7105;}
	.st170{fill:#352B23;}
	.st171{fill:#050403;}
	.st172{fill:#706255;}
	.st173{fill:#44382E;}
	.st174{fill:#634319;}
	.st175{fill:#35210A;}
	.st176{fill:#2D1C08;}
	.st177{fill:#0A0601;}
	.st178{fill:#9E7443;}
	.st179{fill:#704D2A;}
	.st180{fill:#D8A73A;}
	.st181{fill:#A0741C;}
	.st182{fill:#3F2F28;}
	.st183{fill:#211410;}
	.st184{fill:#FF326C;}
	.st185{fill:#BC0749;}
	.st186{fill:#68390E;}
	.st187{fill:#A5632D;}
	.st188{fill:#3D1E05;}
	.st189{fill:#331A06;}
	.st190{fill:#110801;}
	.st191{fill:#160A02;}
	.st192{fill:#663514;}
	.st193{opacity:0.29;}
	.st194{fill:#FC001F;}
	.st195{fill:#AF021F;}
	.st196{fill:#C48622;}
	.st197{fill:#8C5910;}
	.st198{fill:#846D64;}
	.st199{fill:#513B35;}
	.st200{fill:#5B4842;}
	.st201{fill:#332522;}
	.st202{fill:#47332C;}
	.st203{fill:#543E38;}
	.st204{fill:#1E1412;}
	.st205{fill:#604C43;}
	.st206{fill:#D3896C;}
	.st207{fill:#FF001F;}
	.st208{fill:#AF0824;}
	.st209{fill:#A37462;}
	.st210{fill:#5E3E34;}
	.st211{fill:#874A38;}
	.st212{fill:#4C2218;}
	.st213{fill:#5B2B20;}
	.st214{fill:#210C09;}
	.st215{fill:#99001A;}
	.st216{fill:#A08A07;}
	.st217{fill:#A08904;}
	.st218{fill:#5B4C02;}
	.st219{fill:#CECAB7;}
	.st220{fill:#727068;}
	.st221{fill:#42403A;}
	.st222{fill:#B2B0A6;}
	.st223{fill:#726F62;}
	.st224{fill:#6B4F45;}
	.st225{fill:#3A261F;}
	.st226{fill:#777468;}
	.st227{fill:#474436;}
	.st228{fill:#B78B7D;}
	.st229{fill:#845A4E;}
	.st230{fill:#3A372D;}
	.st231{fill:#43CFFF;}
	.st232{fill:#13A0BC;}
</style><g id="_x35_3"><g><path class="st0" d="M291.71,458.73h-70.47c-0.13,0-0.25,0-0.38-0.01c-1.22-0.04-2.42-0.09-3.6-0.15    c-0.34-0.02-0.7-0.04-1.05-0.06c-0.91-0.05-1.83-0.11-2.74-0.17l-0.85-0.06c-1.16-0.09-2.29-0.18-3.4-0.28l-0.71-0.07    c-0.87-0.08-1.76-0.18-2.64-0.28l-0.94-0.11c-0.94-0.11-1.86-0.23-2.76-0.36l-0.45-0.06c-1.01-0.14-2.02-0.3-3.01-0.47l-0.79-0.13    c-0.77-0.13-1.53-0.27-2.27-0.41l-0.74-0.14c-0.98-0.19-1.91-0.39-2.82-0.59l-0.29-0.07c-0.86-0.2-1.65-0.39-2.42-0.58l-0.75-0.19    c-0.72-0.19-1.43-0.38-2.14-0.58l-0.45-0.12c-0.86-0.25-1.68-0.5-2.48-0.76l-0.49-0.16c-0.7-0.23-1.34-0.45-1.97-0.68l-0.58-0.21    c-1.54-0.57-3.04-1.18-4.44-1.82l-0.46-0.21c-0.62-0.29-1.2-0.57-1.76-0.85l-0.36-0.18c-0.69-0.35-1.36-0.72-2-1.08l-0.24-0.14    c-0.55-0.32-1.1-0.65-1.64-0.99l-0.33-0.21c-1.3-0.85-2.46-1.69-3.52-2.55l-0.23-0.19c-0.5-0.42-0.97-0.82-1.42-1.24l-0.21-0.2    c-1.03-0.96-1.98-1.99-2.83-3.04h0l-0.11-0.14c-0.01-0.01-0.06-0.07-0.06-0.08c-0.89-1.12-1.67-2.29-2.33-3.46    c-0.03-0.05-0.05-0.09-0.08-0.14c-0.31-0.56-0.59-1.13-0.86-1.72c0-0.01,0-0.01-0.01-0.02c-0.02-0.05-0.05-0.11-0.07-0.16    c-0.57-1.31-1.02-2.66-1.33-4.02c-0.02-0.08-0.04-0.16-0.05-0.24c-0.45-2.07-0.58-4.17-0.39-6.26v0c0-0.04,0.01-0.09,0.01-0.13    c0.31-3.19,1.33-6.28,3.04-9.18c3.47-6.39,13.56-20.26,35.01-18.73c6.16-0.91,11.73-1.04,16.68-1.15    c13.9-0.33,16.43-0.39,18.92-11.01c0.63-2.88,1.09-6.08,1.37-9.52c0.81-12.89-2.14-25.83-4.83-34.58    c-0.35-0.07-0.7-0.14-1.05-0.22l-1.24-0.27c-1.1-0.24-2.22-0.49-3.33-0.75l-1.39-0.33c-1.16-0.28-2.29-0.56-3.41-0.85l-1.01-0.26    c-1.43-0.38-2.85-0.77-4.25-1.17l-0.86-0.25c-1.13-0.33-2.24-0.67-3.34-1.01l-1.24-0.39c-1.03-0.33-2.05-0.67-3.05-1.01    l-1.03-0.35c-1.35-0.47-2.67-0.95-3.97-1.43l-0.26-0.1c-1.25-0.47-2.42-0.93-3.57-1.39l-1.05-0.43c-0.96-0.39-1.9-0.79-2.83-1.2    l-1-0.44c-2.42-1.07-4.83-2.21-7.15-3.38l-0.8-0.41c-0.92-0.47-1.81-0.94-2.7-1.42l-0.87-0.47c-1.02-0.56-2.02-1.12-3-1.69    l-0.32-0.18c-1.1-0.64-2.21-1.31-3.29-1.98l-0.5-0.32c-0.9-0.56-1.78-1.13-2.64-1.7l-0.71-0.47c-0.9-0.6-1.77-1.2-2.63-1.8    l-0.4-0.28c-1.02-0.73-2.03-1.46-3.02-2.21c-0.03-0.02-0.12-0.09-0.15-0.12c-0.89-0.67-1.79-1.37-2.67-2.07l-0.56-0.45    c-0.79-0.64-1.58-1.29-2.35-1.94l-0.39-0.33c-1.66-1.42-3.3-2.9-4.89-4.4c-0.35,0.47-0.71,0.94-1.09,1.41    c-1.84,2.26-4.08,4.42-6.66,6.41c-0.64,0.5-1.34,1.01-2.13,1.55c-0.17,0.12-0.34,0.23-0.51,0.35l-0.11,0.07    c-0.52,0.35-1.06,0.69-1.58,1.01c-0.22,0.13-0.44,0.27-0.66,0.39c-0.57,0.34-1.18,0.67-1.77,0.98c-0.06,0.03-0.19,0.1-0.31,0.17    c-0.81,0.41-1.57,0.77-2.3,1.08c-11.87,5.04-20.54,1.29-24.71-3.91c-2.04-2.54-7.89-11.89,1.93-25.8    c-2.78-3.19-12.43-8.94-21.04-14.06c-3.4-2.03-7.24-4.31-11.29-6.79c-6.46-2.95-52.67-25.35-59.63-64.75    c-2.45-13.88-0.8-27.22,4.92-39.67c4.66-11.25,12.26-20.67,22-27.27c3.92-2.65,8.16-4.84,12.61-6.49    c17.77-6.6,35.06-4.07,50.01,7.32c2.48,1.89,4.74,3.91,6.79,5.96c0.97-4.15,1.68-6.56,1.75-6.78c0.2-0.67,0.47-1.31,0.79-1.91    c1.85-21.62,16.29-40.99,40.96-54.83c12.29-7.88,27.13-13.39,44.11-16.39c17.5-4.04,36.19-6.09,55.54-6.09    c33.92,0,66.28,6.43,91.12,18.1c18.87,8.87,32.67,20.26,41.01,33.88c0.02,0.03,0.04,0.06,0.06,0.1c0.58,0.95,1.15,1.94,1.68,2.92    l0.13,0.23c1.01,1.89,1.97,3.94,2.79,6.01l0.18,0.46c0.8,2.07,1.48,4.15,2.02,6.21c0.05,0.19,0.1,0.38,0.15,0.58l0.03,0.11    c0.21,0.83,0.4,1.7,0.58,2.57l0.02,0.11c0.04,0.17,0.07,0.34,0.1,0.5c0.2,1.04,0.36,2.09,0.49,3.11c0.02,0.14,0.04,0.32,0.06,0.5    c0.11,0.95,0.19,1.81,0.25,2.67c0,0.07,0.01,0.14,0.01,0.21c0.12,0.31,0.24,0.62,0.33,0.94c0.06,0.2,0.69,2.32,1.56,5.98    c7.86-8.05,20.83-16.78,39.65-16.08c29.34,1.1,41.37,18.74,44.15,23.63c3.01,4.01,5.54,8.41,7.54,13.09    c0.35,0.82,0.68,1.64,0.99,2.47l0.1,0.27c0,0.01,0.04,0.11,0.04,0.12c0.28,0.77,0.56,1.54,0.81,2.32l0.1,0.29    c0.54,1.65,1.04,3.43,1.46,5.21l0.08,0.34c0.19,0.83,0.36,1.61,0.51,2.4l0.06,0.33c0.34,1.82,0.61,3.65,0.8,5.46l0.03,0.33    c0.08,0.84,0.15,1.62,0.2,2.41l0.03,0.5c0.1,1.83,0.14,3.69,0.1,5.51l-0.01,0.3c-0.02,0.85-0.06,1.64-0.11,2.42l-0.04,0.59    c-0.06,0.82-0.13,1.63-0.21,2.45c-0.01,0.08-0.02,0.22-0.04,0.35c-0.09,0.87-0.22,1.81-0.36,2.74l-0.05,0.33    c-0.12,0.78-0.26,1.58-0.41,2.38l-0.13,0.67c-0.14,0.72-0.3,1.46-0.48,2.2l-0.12,0.54c-0.22,0.9-0.46,1.82-0.72,2.73    c-0.01,0.05-0.03,0.1-0.04,0.15l0.01-0.04c0,0.01-0.01,0.03-0.01,0.04c-0.24,0.83-0.5,1.67-0.77,2.49l-0.23,0.7    c-0.23,0.68-0.47,1.36-0.73,2.05l-0.26,0.69c-0.66,1.73-1.42,3.49-2.24,5.22l-0.33,0.68c-0.32,0.66-0.65,1.29-0.98,1.93    c0,0.01-0.05,0.1-0.05,0.1l-0.34,0.64c-0.4,0.75-0.82,1.48-1.25,2.22l-0.19,0.33c-0.49,0.82-1,1.65-1.54,2.48l-0.43,0.65    c-0.4,0.6-0.81,1.22-1.25,1.83c-0.17,0.24-0.35,0.5-0.54,0.75c-0.45,0.62-0.91,1.24-1.39,1.87l-0.1,0.13    c-0.11,0.15-0.22,0.29-0.33,0.44c-0.6,0.76-1.23,1.54-1.88,2.31l-0.47,0.54c-0.5,0.58-1.03,1.18-1.57,1.77l-0.66,0.71    c-0.53,0.56-1.06,1.11-1.6,1.65l-0.14,0.14c-0.16,0.16-0.32,0.33-0.49,0.49c-0.72,0.71-1.47,1.43-2.25,2.14l-0.33,0.3    c-0.7,0.64-1.38,1.23-2.07,1.82l-0.75,0.63c-0.63,0.52-1.23,1.01-1.85,1.49l-0.77,0.61c-0.86,0.66-1.74,1.32-2.64,1.96    c-14.67,10.43-27.57,18.11-37.93,24.28c-2.79,1.66-5.4,3.21-7.8,4.68c-0.8,0.49-1.57,0.96-2.33,1.43c-3.2,2-5.55,3.57-7.39,4.95    c-0.46,0.35-0.9,0.69-1.31,1.02c-0.56,0.46-1.06,0.9-1.5,1.31c-0.26,0.25-0.49,0.48-0.69,0.7c0.77,1.1,1.48,2.22,2.09,3.32    c1.04,1.86,1.85,3.74,2.41,5.58c0.4,1.29,0.68,2.62,0.84,3.91c0.94,7.69-2.61,14.4-9.25,17.5c-1.76,0.83-3.71,1.37-5.77,1.6    c-6.96,0.79-14.96-2-22.51-7.84c-0.68-0.53-1.35-1.08-2.05-1.69c-0.16-0.14-0.32-0.28-0.47-0.42l-0.1-0.09    c-0.49-0.44-0.95-0.87-1.39-1.31c-0.18-0.18-0.38-0.38-0.57-0.58c-0.45-0.46-0.88-0.94-1.3-1.42l-0.05-0.06    c-0.14-0.15-0.27-0.31-0.4-0.47c-0.5-0.6-0.97-1.19-1.4-1.78c-19.35,18.36-45.13,30.93-76.93,37.48c-0.31,1.02-0.61,2.04-0.9,3.05    c-2.41,8.59-3.76,16.82-4.02,24.45c-0.03,0.8-0.04,1.6-0.05,2.42c0,0.79,0.01,1.6,0.03,2.4c0.02,0.79,0.06,1.59,0.11,2.39    c0.21,3.27,0.66,6.41,1.34,9.33c0.67,2.88,1.51,5.17,2.5,6.78c0.24,0.4,0.5,0.76,0.76,1.07c0.29,0.35,0.59,0.65,0.91,0.9    c0.15,0.12,0.3,0.23,0.46,0.33c0.54,0.34,1.18,0.62,1.96,0.86c0.59,0.18,1.28,0.34,2.04,0.47c1.54,0.26,3.41,0.43,6.06,0.53    c1.36,0.05,2.77,0.09,4.23,0.12c1.32,0.03,2.67,0.06,4.06,0.11c4.17,0.14,9.72,0.44,15.67,1.55c0.48,0.09,0.96,0.18,1.45,0.28    c0.98,0.2,1.97,0.42,2.96,0.67c0.49,0.12,0.99,0.25,1.49,0.39c2.09,0.56,4.16,1.22,6.17,1.96c11.14,4.1,18.87,10.82,21.77,18.92    c0.53,1.47,0.9,3,1.09,4.53c0.13,1.05,0.19,2.11,0.16,3.16c-0.01,0.52-0.04,1.04-0.1,1.56c-0.16,1.57-0.49,3.13-1,4.64    c-0.49,1.46-1.14,2.91-1.94,4.29c-1.75,3.02-4.22,5.8-7.34,8.29c-0.83,0.66-1.73,1.32-2.67,1.95c-5.52,3.69-12.66,6.62-21.25,8.73    c-1.45,0.35-2.94,0.69-4.44,0.99c-1.53,0.31-3.12,0.6-4.72,0.86c-6.6,1.07-13.92,1.74-21.75,1.98    C291.92,458.73,291.82,458.73,291.71,458.73z M221.41,438.73h70.14c6.92-0.22,13.32-0.81,19.04-1.73    c1.35-0.22,2.68-0.46,3.97-0.72c1.23-0.25,2.45-0.52,3.63-0.81c6.22-1.53,11.37-3.57,14.88-5.92c0.48-0.32,0.94-0.65,1.35-0.98    c1.45-1.15,2.15-2.08,2.48-2.66c0.12-0.21,0.22-0.42,0.28-0.6c0.04-0.11,0.06-0.21,0.07-0.3c0-0.11,0-0.15,0-0.19    c-0.01-0.09-0.04-0.2-0.08-0.32c-0.5-1.4-3.14-4.42-9.85-6.89c-1.45-0.54-2.96-1.01-4.46-1.42c-0.36-0.1-0.73-0.19-1.09-0.28    c-0.74-0.18-1.46-0.35-2.18-0.49c-0.36-0.07-0.73-0.15-1.09-0.21c-4.61-0.86-9-1.1-12.69-1.22c-1.32-0.04-2.6-0.07-3.86-0.1    c-1.56-0.04-3.08-0.07-4.54-0.13c-2.39-0.09-5.54-0.27-8.65-0.8c-1.6-0.27-3.08-0.62-4.5-1.05c-2.53-0.77-4.76-1.79-6.83-3.1    c-0.74-0.47-1.46-0.98-2.16-1.53c-1.42-1.12-2.73-2.4-3.91-3.82c-0.87-1.05-1.69-2.21-2.44-3.43c-2.12-3.48-3.73-7.62-4.9-12.65    c-0.93-3.98-1.54-8.22-1.83-12.58c-0.07-1.04-0.11-2.07-0.14-3.09c-0.03-1.03-0.04-2.05-0.04-3.07c0-1.02,0.02-2.02,0.06-3.02    c0.32-9.23,1.92-19.04,4.75-29.16c0.92-3.28,1.96-6.55,3.1-9.74c1.21-3.38,4.13-5.85,7.66-6.48c37.38-6.68,65.45-22,83.44-45.53    c1.73-2.26,4.26-3.6,6.93-3.88c-0.79-2.57-0.55-5.43,0.86-7.91c11.2-19.65,16.81-43.75,16.69-71.63    c-0.01-1.29,0.24-2.57,0.72-3.77c0,0,0,0,0,0c0,0,0-0.01,0-0.01c0.1-0.25,0.21-0.5,0.33-0.74c0.05-0.11,0.11-0.21,0.17-0.31    c0.51-0.94,1.02-1.85,1.54-2.75l0.48-0.83c0.37-0.64,0.74-1.27,1.11-1.9l0.5-0.83c0.43-0.71,0.86-1.4,1.29-2.08l0.28-0.44    c0.52-0.83,1.05-1.63,1.57-2.41l0.42-0.62c0.11-0.17,0.22-0.33,0.33-0.49c-5.23,0.29-9.79-3.53-10.44-8.73    c-1.43-11.33-3.42-20.04-4.5-24.29c-1.13-1.62-1.8-3.59-1.8-5.72c0-0.59-0.02-1.24-0.07-2.04l-0.04-0.55    c-0.04-0.55-0.09-1.11-0.16-1.66l-0.03-0.31c-0.09-0.72-0.2-1.39-0.32-2.06l-0.08-0.39c-0.11-0.56-0.24-1.11-0.38-1.67l-0.1-0.42    c-0.35-1.33-0.79-2.68-1.3-4l-0.12-0.32c-0.55-1.38-1.19-2.75-1.89-4.06l-0.02-0.04c-0.4-0.73-0.79-1.41-1.19-2.07    c-0.02-0.03-0.03-0.05-0.05-0.08c-6.19-10.07-17.41-19.13-32.45-26.19c-22.23-10.45-51.57-16.2-82.61-16.2    c-17.94,0-35.2,1.9-51.31,5.64c-0.17,0.04-0.35,0.08-0.52,0.11l-0.16,0.03c-14.49,2.55-26.97,7.16-37.08,13.68    c-0.18,0.12-0.37,0.23-0.56,0.33c-13.85,7.71-30.49,21.1-31.16,41.06c-0.03,0.93-0.19,1.85-0.48,2.74    c-0.16,0.48-0.31,0.97-0.46,1.46c-0.29,0.93-0.71,1.8-1.23,2.58c-1.06,4.18-3.09,12.98-4.54,24.46c-0.56,4.43-3.99,7.96-8.41,8.63    c-0.68,0.1-1.36,0.14-2.03,0.1c0.75,1.1,1.5,2.24,2.24,3.4c0.44,0.69,0.88,1.4,1.33,2.13c1.33,2.17,2.65,4.47,3.94,6.83    c0.81,1.48,1.23,3.15,1.22,4.83l0,0.5c0,0.08,0,0.16,0,0.24c-0.4,16.36,1.81,32.24,6.56,47.2c2.62,8.53,6.03,16.46,10.13,23.68    c1.41,2.48,1.66,5.34,0.87,7.91c2.67,0.27,5.2,1.62,6.93,3.87c0.68,0.88,1.37,1.76,2.08,2.63l0.24,0.29    c0.56,0.67,1.12,1.34,1.7,2.01l0.15,0.17c1.27,1.46,2.6,2.9,3.95,4.28l0.27,0.28c0.62,0.62,1.22,1.22,1.83,1.81l0.35,0.34    c1.41,1.35,2.9,2.69,4.4,3.98l0.36,0.3c0.63,0.54,1.3,1.08,1.96,1.62l0.48,0.38c0.74,0.59,1.5,1.18,2.27,1.77    c0.03,0.02,0.11,0.09,0.14,0.11c0.81,0.61,1.66,1.23,2.53,1.84l0.33,0.23c0.74,0.52,1.48,1.03,2.23,1.53l0.61,0.41    c0.75,0.49,1.5,0.97,2.25,1.45l0.43,0.27c0.94,0.58,1.88,1.15,2.84,1.71l0.29,0.17c0.81,0.47,1.67,0.95,2.55,1.43l0.75,0.41    c0.76,0.41,1.54,0.82,2.32,1.22l0.71,0.36c2.01,1.01,4.11,2.01,6.24,2.95l0.86,0.37c0.81,0.35,1.64,0.7,2.47,1.05l0.95,0.39    c1,0.4,2.03,0.8,3.07,1.2l0.24,0.09c1.2,0.45,2.37,0.87,3.55,1.28l0.92,0.31c0.89,0.3,1.79,0.6,2.71,0.9l1.11,0.35    c0.99,0.31,1.98,0.61,2.98,0.9l0.75,0.22c1.28,0.37,2.56,0.72,3.85,1.06l0.89,0.23c1.03,0.27,2.04,0.52,3.07,0.77l1.27,0.3    c1,0.23,2.01,0.46,3.03,0.68l1.13,0.25c1.36,0.29,2.76,0.57,4.17,0.83l0.69,0.13c0.49,0.09,0.96,0.18,1.44,0.26    c3.53,0.63,6.46,3.1,7.66,6.48c3.42,9.57,8.97,28.53,7.72,48.01c0,0.05-0.01,0.1-0.01,0.15c-0.35,4.41-0.95,8.58-1.79,12.39    c-0.01,0.04-0.02,0.08-0.03,0.12c-6.01,25.77-23.71,26.18-37.93,26.52c-4.87,0.12-9.9,0.23-15.2,1.1    c-0.85,0.14-1.72,0.17-2.58,0.08c-7.82-0.77-13.48,2.04-16.86,8.37c-0.08,0.16-0.17,0.31-0.26,0.46    c-0.22,0.36-0.35,0.69-0.38,0.95c0,0.01,0,0.02,0,0.03c-0.01,0.06-0.01,0.15,0.02,0.28c0,0.02,0.01,0.04,0.01,0.06    c0.03,0.1,0.06,0.2,0.11,0.31c0.01,0.01,0.01,0.03,0.02,0.04l0,0c0.05,0.1,0.1,0.21,0.16,0.31c0.01,0.01,0.01,0.03,0.02,0.04    c0.13,0.23,0.31,0.48,0.52,0.75c0.01,0.01,0.02,0.02,0.03,0.03c0.01,0.02,0.02,0.03,0.04,0.05c0.27,0.34,0.6,0.69,0.97,1.04    c0.02,0.02,0.06,0.06,0.08,0.07c0.2,0.18,0.4,0.35,0.6,0.52l0.14,0.12c0.49,0.39,1.07,0.82,1.72,1.24l0.25,0.16    c0.26,0.16,0.58,0.36,0.91,0.55l0.2,0.12c0.32,0.19,0.73,0.4,1.15,0.62l0.26,0.13c0.34,0.17,0.72,0.35,1.1,0.53l0.33,0.15    c0.97,0.44,2.01,0.87,3.11,1.27l0.35,0.12c0.01,0,0.09,0.03,0.1,0.03c0.46,0.17,0.94,0.33,1.42,0.49l0.43,0.14    c0.57,0.18,1.21,0.38,1.86,0.57l0.36,0.1c0.55,0.16,1.11,0.31,1.68,0.46l0.61,0.16c0.61,0.15,1.25,0.31,1.91,0.46l0.29,0.07    c0.74,0.17,1.51,0.33,2.3,0.48l0.65,0.12c0.61,0.12,1.24,0.23,1.89,0.34l0.67,0.11c0.84,0.14,1.7,0.27,2.58,0.4l0.4,0.05    c0.74,0.1,1.54,0.21,2.35,0.3l0.83,0.1c0.76,0.09,1.53,0.17,2.32,0.25l0.62,0.06c0.97,0.09,1.97,0.17,2.99,0.25l0.76,0.05    c0.82,0.06,1.64,0.11,2.47,0.15l0.92,0.05C219.29,438.65,220.34,438.7,221.41,438.73z M389.32,300.28L389.32,300.28L389.32,300.28    z M379.92,289.32c0.03,0.04,0.05,0.07,0.07,0.1c0.17,0.24,0.39,0.51,0.63,0.8l0.2,0.23c0.2,0.23,0.4,0.45,0.61,0.66l0.28,0.28    c0.25,0.25,0.48,0.46,0.72,0.68l0.32,0.29c0.35,0.31,0.73,0.62,1.13,0.93c0.94,0.72,1.81,1.32,2.61,1.8    c-1.23-1.96-2.1-3.97-2.6-5.99c-0.23-0.93-0.39-1.89-0.46-2.85c-0.04-0.5-0.06-0.97-0.05-1.45c0-0.53,0.03-1,0.07-1.48    c0.25-2.67,1.13-5.29,2.62-7.78c0.41-0.69,0.89-1.39,1.41-2.08c0.25-0.32,0.5-0.65,0.78-0.98c0.46-0.55,0.96-1.11,1.51-1.67    c-2.06,1.43-3.87,2.88-5.43,4.34c-1.65,1.54-3.7,2.43-5.81,2.64c0.54,1.75,0.61,3.66,0.11,5.53c-0.35,1.31-0.32,2.47,0.1,3.68    l0.02,0.06c0.08,0.22,0.16,0.42,0.25,0.62c0.01,0.03,0.06,0.13,0.07,0.16c0.11,0.23,0.24,0.48,0.36,0.69    c0.01,0.01,0.01,0.02,0.02,0.03C379.59,288.83,379.75,289.08,379.92,289.32z M123.21,270.83c3.15,3.23,5.18,6.61,6.01,10.56    c0.68,3.25,0.7,8.16-2.74,13.67l0.08-0.05c0.3-0.18,0.59-0.37,0.88-0.57l0.35-0.23c0.42-0.29,0.85-0.6,1.27-0.92    c1.37-1.06,2.51-2.15,3.39-3.23c0.91-1.11,1.53-2.21,1.85-3.25c0.11-0.36,0.19-0.7,0.23-1.05c0.02-0.18,0.04-0.35,0.04-0.52    c0.01-0.35-0.01-0.71-0.07-1.08c-0.02-0.14-0.07-0.38-0.19-0.83c-0.5-1.87-0.43-3.78,0.11-5.53c-2.11-0.21-4.16-1.1-5.81-2.64    c-0.92-0.86-1.92-1.71-2.98-2.53c-0.54-0.42-1.11-0.85-1.69-1.27c0,0,0,0,0,0C123.72,271.18,123.47,271.01,123.21,270.83z     M403.25,284.16L403.25,284.16L403.25,284.16z M405.49,193.83c-0.14,17.65-2.39,34.01-6.73,48.97    c29.34-16.56,54.14-40.92,48.63-59.27c-2.27-7.56-5.94-13.19-10.06-15.44c-0.18-0.1-0.37-0.2-0.57-0.29    c-0.03-0.01-0.05-0.03-0.08-0.04c-0.53-0.24-1.06-0.42-1.6-0.54c-0.01,0-0.02-0.01-0.04-0.01c-0.53-0.12-1.09-0.19-1.66-0.2h-0.05    c-0.27,0-0.46,0-0.66,0.02c-0.44,0.03-0.89,0.09-1.35,0.18l-0.09,0.02l0,0c-0.22,0.04-0.44,0.1-0.66,0.15    c-0.03,0.01-0.11,0.03-0.14,0.04c-0.5,0.14-1.04,0.32-1.59,0.54l-0.12,0.05c-0.25,0.1-0.5,0.22-0.76,0.34l-0.15,0.07    c-0.3,0.15-0.6,0.29-0.89,0.45c-0.05,0.03-0.09,0.05-0.14,0.07c-0.25,0.14-0.58,0.33-0.9,0.53l0.02-0.01l-0.12,0.07    c-0.34,0.21-0.64,0.4-0.93,0.6l-0.22,0.15c-0.32,0.22-0.6,0.43-0.89,0.64l-0.16,0.12c-0.41,0.31-0.77,0.59-1.14,0.89    c-0.04,0.03-0.07,0.06-0.09,0.08c-0.35,0.29-0.7,0.59-1.05,0.9l-0.3,0.27c-0.31,0.28-0.6,0.55-0.9,0.84l-0.29,0.28    c-0.82,0.8-1.64,1.64-2.44,2.53l-0.34,0.38c-0.3,0.34-0.61,0.69-0.92,1.05l-0.38,0.44c-0.35,0.42-0.7,0.85-1.05,1.29l-0.16,0.2    c-0.01,0.01-0.06,0.07-0.07,0.09c-0.43,0.54-0.85,1.1-1.28,1.67l-0.31,0.42c-0.35,0.47-0.67,0.92-1,1.37l-0.41,0.58    c-0.35,0.49-0.68,0.98-1.01,1.46l-0.35,0.52c-0.44,0.66-0.88,1.33-1.32,2.03l-0.24,0.38c-0.37,0.59-0.74,1.19-1.11,1.8l-0.4,0.66    c-0.36,0.6-0.68,1.16-1.01,1.72l-0.4,0.69C405.59,193.65,405.54,193.74,405.49,193.83z M79.73,167c-0.1,0-0.19,0-0.29,0    c-0.3,0.01-0.61,0.04-0.89,0.08c-0.45,0.07-0.88,0.17-1.31,0.3c-1.4,0.45-2.77,1.29-4.1,2.52c-0.19,0.17-0.34,0.33-0.5,0.48    c-0.31,0.32-0.64,0.67-0.96,1.05c-1.02,1.2-1.99,2.62-2.87,4.22c-1.26,2.29-2.35,4.94-3.23,7.87c-0.26,0.87-0.46,1.77-0.59,2.67    c-0.04,0.29-0.08,0.59-0.11,0.89c-0.06,0.59-0.09,1.2-0.09,1.79c0,0.3,0,0.61,0.02,0.92c0.31,7.52,4.93,16.34,13.39,25.51    c0.7,0.76,1.41,1.51,2.14,2.25c0.37,0.38,0.74,0.75,1.12,1.12c2.23,2.2,4.67,4.41,7.26,6.59c0.86,0.72,1.73,1.43,2.6,2.13    c1.71,1.37,3.53,2.76,5.39,4.11c0.46,0.34,0.92,0.67,1.38,1c0.93,0.67,1.86,1.32,2.8,1.96c4.25,2.91,8.76,5.73,13.33,8.32    c-4.68-15.61-6.96-32.1-6.76-49.03c-0.72-1.28-1.46-2.52-2.19-3.71c-0.38-0.62-0.76-1.23-1.13-1.82    c-1.83-2.88-3.69-5.52-5.54-7.87c-2.39-3.03-4.79-5.61-7.14-7.66c-0.62-0.54-1.24-1.05-1.85-1.52c-0.87-0.67-1.74-1.26-2.58-1.77    c-0.53-0.32-1.06-0.61-1.57-0.87c-0.25-0.13-0.5-0.24-0.74-0.35c-0.69-0.31-1.36-0.56-2.01-0.74c-0.22-0.06-0.41-0.11-0.61-0.16    c-0.38-0.09-0.76-0.16-1.12-0.21C80.53,167.03,80.12,167,79.73,167z M75.56,142.46c-3.68,0-7.63,0.68-11.87,2.25    c-2.95,1.1-5.77,2.54-8.36,4.3c-6.53,4.43-11.65,10.83-14.8,18.51c-0.06,0.14-0.12,0.27-0.18,0.41    c-4.04,8.72-5.21,18.14-3.46,27.98c4,22.63,28.01,38.95,40.73,46.14c-0.6-0.49-1.19-0.98-1.78-1.47c-3.01-2.52-5.85-5.1-8.45-7.67    c-0.45-0.44-0.9-0.89-1.34-1.34c-0.88-0.89-1.74-1.8-2.59-2.72c-11.87-12.88-18.15-25.75-18.66-38.25    c-0.02-0.6-0.04-1.21-0.03-1.81c0-1.22,0.07-2.46,0.19-3.67c0.06-0.61,0.13-1.22,0.22-1.83c0.27-1.86,0.69-3.71,1.23-5.5    c1.29-4.28,2.93-8.25,4.88-11.78c1.54-2.78,3.27-5.31,5.16-7.53c0.65-0.77,1.34-1.51,2.03-2.21c0.37-0.37,0.73-0.72,1.1-1.06    c3.47-3.21,7.37-5.53,11.57-6.87c1.46-0.47,2.98-0.82,4.51-1.04c1.01-0.15,2.06-0.24,3.11-0.28c1.56-0.05,3.16,0.02,4.73,0.23    c1.05,0.13,2.11,0.33,3.16,0.58c0.52,0.12,1.05,0.26,1.58,0.41c1.52,0.44,3.07,1.01,4.6,1.69c0.51,0.23,1.02,0.47,1.52,0.72    c0.98,0.49,1.99,1.04,2.98,1.64c0.97,0.59,1.95,1.23,2.92,1.92C94.4,148.09,86.14,142.46,75.56,142.46z M445.3,149.72    c0.54,0.25,1.08,0.53,1.61,0.81c8.85,4.84,15.82,14.51,19.64,27.25c6.37,21.24-6.43,42.37-25.93,59.83    c3.41-2.26,6.93-4.67,10.55-7.24c0.7-0.5,1.38-1.01,2.05-1.52l0.6-0.47c0.48-0.38,0.95-0.76,1.42-1.15l0.59-0.49    c0.53-0.45,1.04-0.9,1.55-1.36l0.29-0.26c0.59-0.54,1.16-1.09,1.72-1.64l0.44-0.45c0,0,0.01-0.01,0.01-0.01    c0.41-0.41,0.81-0.83,1.21-1.25l0.51-0.55c0.4-0.43,0.79-0.88,1.17-1.33l0.35-0.4c0.48-0.57,0.95-1.15,1.41-1.73l0.31-0.41    c0.35-0.45,0.69-0.92,1.03-1.38l0.4-0.56c0.32-0.46,0.63-0.91,0.92-1.36l0.32-0.48c0.39-0.6,0.76-1.2,1.13-1.81l0.15-0.26    c0.3-0.52,0.6-1.05,0.89-1.59l0.25-0.47c0,0,0.05-0.09,0.05-0.09c0.24-0.45,0.48-0.93,0.71-1.4l0.26-0.53    c0.58-1.22,1.13-2.5,1.61-3.77l0.19-0.52c0.17-0.46,0.35-0.95,0.51-1.45l0.17-0.51c0.2-0.61,0.39-1.21,0.56-1.82    c0.02-0.06,0.03-0.12,0.05-0.17c0.18-0.63,0.34-1.27,0.5-1.9l0.08-0.37c0.13-0.54,0.24-1.07,0.35-1.6l0.09-0.48    c0.11-0.57,0.21-1.14,0.3-1.72l0.04-0.25l-0.01,0.08c0.11-0.73,0.2-1.39,0.27-2.05l0.02-0.23c0.06-0.58,0.11-1.16,0.15-1.74    l0.03-0.44c0.03-0.53,0.06-1.09,0.07-1.66l0.01-0.25c0.03-1.31,0.01-2.63-0.07-3.94l-0.02-0.35c-0.04-0.54-0.08-1.1-0.14-1.66    l-0.02-0.17c0,0-0.01-0.1-0.01-0.1c-0.13-1.29-0.32-2.58-0.56-3.84l-0.03-0.14c0-0.02-0.02-0.09-0.02-0.12    c-0.11-0.55-0.22-1.1-0.35-1.64c0-0.01-0.03-0.11-0.03-0.12l-0.03-0.11c-0.31-1.29-0.65-2.53-1.04-3.73    c-0.01-0.02-0.03-0.1-0.04-0.12c-0.19-0.58-0.38-1.12-0.58-1.66l-0.08-0.22c-0.23-0.62-0.46-1.19-0.7-1.75    c-1.44-3.38-3.28-6.53-5.48-9.37c-0.5-0.65-0.79-1.06-1.11-1.8c-0.65-1.2-7.4-12.66-27.45-13.41c-14.36-0.54-23.36,8-27.62,13.48    c0.31-0.25,0.63-0.49,0.94-0.73l0.31-0.23c0.5-0.38,0.98-0.72,1.46-1.05l0.42-0.29c0.52-0.35,1.03-0.68,1.55-1l0.29-0.18    c0.54-0.33,1.16-0.69,1.78-1.03c0.04-0.02,0.09-0.05,0.14-0.08c0.56-0.3,1.13-0.59,1.69-0.86l0.22-0.11    c0.03-0.01,0.13-0.06,0.15-0.07c0.54-0.25,1.07-0.49,1.6-0.71l0.19-0.08c1.34-0.54,2.64-0.98,3.92-1.33l0.26-0.07    c0.56-0.15,1.14-0.29,1.71-0.4c0.04-0.01,0.07-0.01,0.1-0.02l0.17-0.03c1.31-0.26,2.66-0.44,3.98-0.52    c0.73-0.04,1.36-0.06,1.98-0.05h0.05c0.04,0,0.08,0,0.13,0c1.99,0.03,3.97,0.26,5.89,0.7c0.07,0.02,0.14,0.03,0.19,0.04    c1.82,0.42,3.69,1.06,5.49,1.89C445.19,149.67,445.25,149.69,445.3,149.72z M395.5,191.23L395.5,191.23L395.5,191.23z"/></g><g><g><g><path class="st151" d="M231,323.38c0,0,14.96,32.79,8.21,61.71c-6.75,28.93-28.21,12.54-57.02,23.14s-22.3,38.57,39.06,40.5      h70.47c61.35-1.93,67.86-29.89,39.06-40.5s-50.27,5.79-57.02-23.14c-6.75-28.93,8.21-61.71,8.21-61.71"/></g><g><path class="st167" d="M330.77,408.23c-28.8-10.61-50.27,5.79-57.02-23.14c-6.75-28.93,8.21-61.71,8.21-61.71h-24.1      c-0.84,14.8-2.68,59.35,4.52,71.36c8.68,14.46,27.96,11.57,48.21,17.36c20.25,5.79,20.25,20.25-40.5,23.14      c-44.83,2.13-84.64-7.81-103.89-13.55c-3.63,11.9,12.55,25.72,55.04,27.05h70.47C353.06,446.8,359.57,418.84,330.77,408.23z"/></g></g><g><g><path class="st151" d="M117.46,191.24c-26.28-48.25-52.8-39.5-61.47-10.58s30.86,59.79,61.47,75.21s33.51,33.13,17.75,45.32      c-15.76,12.19-28.11,3.86-17.75-10.61c10.36-14.46-18.07-21.21-61.47-52.07s-34.71-88.71,4.22-103.18s59.05,28.76,59.05,28.76       M395.49,191.24c26.28-48.25,52.8-39.5,61.47-10.58c8.68,28.93-30.86,59.79-61.47,75.21s-33.51,33.13-17.75,45.32      c15.76,12.19,28.11,3.86,17.75-10.61c-10.36-14.46,18.07-21.21,61.47-52.07s34.71-88.71-4.22-103.18S393.7,164.1,393.7,164.1"/></g><g><path class="st167" d="M135.2,301.2c-2.51,1.94-4.92,3.35-7.18,4.31c10.27-8.33,11.14-19.51-5.46-34.2      c-21.21-18.78-72.26-37.24-79.07-86.79c-4.94-35.94,25.7-47.17,42.9-50.63c21.73,6.29,32.87,30.21,32.87,30.21l-1.79,27.14      c-26.28-48.25-52.8-39.5-61.47-10.58c-8.68,28.93,30.86,59.79,61.47,75.21C148.06,271.3,150.96,289.01,135.2,301.2z       M435.95,145.95c-24.48-0.68-36.49,18.79-41.45,30.33l0.99,14.96c17.1-31.4,34.31-38.66,46.63-31.92h0      c0,0,35.24,1.84,27.83,38.34c-7.41,36.5-57.81,48.99-78.36,72.68c-10.49,12.09-17.98,16.7-22.81,18.32      c1.07,4.55,4.13,8.8,8.96,12.54c15.76,12.19,28.11,3.86,17.75-10.61c-10.36-14.46,18.07-21.21,61.47-52.07      c28.38-20.18,34.48-51.9,24.42-75.49C471.97,156.21,456.49,146.52,435.95,145.95z"/></g></g><g><g><path class="st151" d="M388.1,135.34h-0.61c0-22.1-15.61-41.6-43.95-54.92C320,69.36,289.15,63.27,256.67,63.27      s-63.33,6.09-86.87,17.15c-28.34,13.32-43.95,32.82-43.95,54.92h-1c0,0-52.47,175.5,122.06,196.71h19.12      C440.57,310.84,388.1,135.34,388.1,135.34z"/></g><g><path class="st167" d="M388.1,135.34h-0.61c0-15.59-7.78-29.88-22.3-41.62c2.18,11.38,3.32,23.03,4.6,34.42      c0.56,4.98,0.86,9.97,0.66,14.98c-1.19,29.78-7.11,56.44-21.83,82.53c-1.24,2.21-2.74,4.24-4.23,6.29      c-6.65,9.14-13.33,18.99-21.35,27.08c-0.86,0.87-1.76,1.69-2.68,2.49c-7.67,6.53-16.28,13.09-24.46,18.97      c-1.96,1.41-3.95,2.68-6.12,3.75c-4.88,2.13-9.78,4.21-14.71,6.23c-4.83,2.26-9.74,4.31-14.73,6.15      c-1.09,0.33-2.17,0.61-3.29,0.84c-11.02,2.36-23.48,4.8-35.2,4.17c-24.55-1.33-39.74-5.01-61.34-16.63      c-0.86-0.46-1.71-0.9-2.55-1.42c-2.18-1.35-4.45-2.91-6.74-4.58c-3.36-1.33-7.77-3.12-10.74-4.68      c-0.55-0.29-1.09-0.59-1.63-0.89c18.32,28.34,51.1,51.71,108.08,58.63h19.12C440.57,310.84,388.1,135.34,388.1,135.34z"/></g></g><g><g><ellipse class="st168" cx="256.67" cy="135.34" rx="110.82" ry="52.07"/></g><g><path class="st169" d="M208.28,123.62c27.18-5.8,56.39-6.38,83.96-2.89c11.62,1.47,23.26,2.88,34.58,5.95      c11.07,3.01,21.71,7.59,32.14,12.3c2.51,1.13,4.99,2.37,7.44,3.68c0.72-2.39,1.1-4.84,1.1-7.32      c0-28.76-49.61-52.07-110.82-52.07s-110.82,23.31-110.82,52.07c0,7.24,3.15,14.14,8.83,20.4      C168.02,139.01,187.18,128.12,208.28,123.62z"/></g></g><g><g><path class="st6" d="M144.01,280.76c0,0-28.11-32.98-26.55-89.52s15.78-109.77,85.49-122.05s108.59-1.26,140.58,11.23      c0,0-61.41-16.44-113.07-8.72s-89.17,25.71-91.63,57.21s24.36,55.29,91.63,64.29s127.06-23.79,127.06-23.79      s-12.21,24.43-69.43,32.14c-57.21,7.71-118.93-5.14-136.93-21.21s-22.6-14.54-26.36,17.32      C121.05,229.53,144.01,280.76,144.01,280.76z M49.72,140.74c0,0-29.17,20.24-22.68,56.92s54.47,57.63,54.47,57.63      s-49.26-35.74-49.26-67.88S49.72,140.74,49.72,140.74z M474.63,151.47c0,0-8.46-18.05-36.1-19.09s-39.84,23.36-39.84,23.36      C436.19,114.07,474.63,151.47,474.63,151.47z M205.68,415.62c16.58,1.29,38.06-1.29,39.35-38.76      c1.29-37.47-7.56-44.81-7.56-44.81s6.92,29.57,1.74,53.04c-5.18,23.46-23.11,22.18-45,20.02s-28,16.57-28,16.57      C171.6,406.52,189.09,414.34,205.68,415.62z"/></g><g><path class="st6" d="M141.84,204.09c-10.31,0-10.3-16,0-16C152.16,188.09,152.14,204.09,141.84,204.09z M133.17,215.3      c-2.57,0-2.58,4,0,4C135.74,219.3,135.74,215.3,133.17,215.3z M51.2,144.77c-7.72,0-7.73,12,0,12      C58.92,156.77,58.94,144.77,51.2,144.77z M39.63,162.77c-1.93,0-1.93,3,0,3C41.56,165.77,41.56,162.77,39.63,162.77z       M421.49,143.88c-5.15,0-5.16,8,0,8C426.64,151.88,426.64,143.88,421.49,143.88z M410.88,152.16c-1.93,0-1.93,3,0,3      C412.81,155.16,412.81,152.16,410.88,152.16z M177.52,421.59c-5.15,0-5.16,8,0,8C182.67,429.59,182.68,421.59,177.52,421.59z       M192.95,424.59c-1.29,0-1.29,2,0,2C194.24,426.59,194.24,424.59,192.95,424.59z"/></g><g class="st147"><path class="st6" d="M352.34,279.98c0.04,1.1-0.19,2.13-0.69,3.08c-0.32,0.99-0.87,1.85-1.65,2.57      c-0.32,0.32-0.64,0.64-0.96,0.96c-1,0.99-2.17,1.68-3.53,2.06c-0.71,0.1-1.42,0.19-2.13,0.29c-1.44,0-2.79-0.37-4.04-1.09      c-0.54-0.42-1.08-0.83-1.62-1.25c-0.78-0.72-1.33-1.58-1.65-2.57c-0.5-0.95-0.73-1.98-0.69-3.08c-0.04-1.1,0.19-2.13,0.69-3.08      c0.32-0.99,0.87-1.85,1.65-2.57c0.32-0.32,0.64-0.64,0.96-0.96c1-0.99,2.17-1.68,3.53-2.06c0.71-0.1,1.42-0.19,2.13-0.29      c1.44,0,2.79,0.37,4.04,1.09c0.54,0.42,1.08,0.83,1.62,1.25c0.78,0.72,1.33,1.58,1.65,2.57      C352.16,277.85,352.39,278.88,352.34,279.98z M320.24,295.8c-3.22,0-3.22,5,0,5C323.45,300.8,323.46,295.8,320.24,295.8z       M334.7,424.02c-4.5,0-4.51,7,0,7C339.21,431.02,339.21,424.02,334.7,424.02z M323.13,433.27c-1.29,0-1.29,2,0,2      C324.42,435.27,324.42,433.27,323.13,433.27z M387.74,297.73c-3.22,0-3.22,5,0,5C390.95,302.73,390.96,297.73,387.74,297.73z       M383.88,292.02c-0.64,0-0.64,1,0,1C384.52,293.02,384.52,292.02,383.88,292.02z"/></g></g><g><g><path class="st144" d="M234.57,237.19c0,0,9.97-28.46,22.14-28.95c12.16-0.49,26.03,30.16,26.03,30.16s22.38,1.03,26.52,10.37      c4.14,9.34-18.97,23.67-18.97,23.67s7.54,19.24,2.19,28.24s-35.76-9.52-35.76-9.52s-19.46,15.92-28.71,11.99      c-9.24-3.93-1.95-30.7-1.95-30.7s-20.19-12.82-19.46-23.67C207.33,237.92,234.57,237.19,234.57,237.19z"/></g><g><path class="st145" d="M263.28,213.35c0,0,12.16,11.92,17.76,27.98c0,0,22.14,0.78,26.03,7.45      c3.89,6.66-19.46,22.56-19.46,22.56s5.84,12.12,4.87,22.8s-8.76,8.39-18.73,3.58c-9.97-4.81-17.27-9.93-17.27-9.93      s-11.92,10.43-20.19,12.9c-8.27,2.47-10.46-5.35-10.46-5.35s3.41,2.47,11.31-1.2c7.9-3.67,19.58-19.13,19.58-19.13      s14.11,16.36,23.6,15.42c9.49-0.94-6.57-24.96-6.57-24.96s21.65-5.88,22.14-13.19c0.49-7.31-23.6-2.77-23.6-2.77      S271.55,223.32,263.28,213.35z"/></g><g class="st8"><path class="st6" d="M259.87,211.9c0,0-14.84-0.74-20.92,27.24c0,0-25.88-0.11-28.46,7.65c-2.58,7.76,19.7,24.54,19.7,24.54      s-5.6,13.62-3.16,20.03s4.21-8.97,9.65-14.17c5.43-5.21,5.19-7.31,2.27-10.39s-22.62-9.13-21.65-16.45s28.95-3.56,28.95-3.56      S247.95,215.07,259.87,211.9z"/></g><g><path class="st6" d="M257.93,219.91c0,1.98-1.68,3.66-3.66,3.66c-1.98,0-3.66-1.67-3.66-3.66c0-1.98,1.68-3.66,3.66-3.66      C256.26,216.26,257.93,217.93,257.93,219.91z M246.49,225.88c-4.22,0-4.23,6.56,0,6.56      C250.71,232.44,250.72,225.88,246.49,225.88z M249.41,236.15c-2.27,0-2.28,3.53,0,3.53      C251.68,239.68,251.69,236.15,249.41,236.15z"/></g><g><path class="st144" d="M282.49,280.73c-4.39,0-4.38-6.81,0-6.81C286.88,273.92,286.88,280.73,282.49,280.73z M285.9,283.18      c-3.73,0-3.74,5.8,0,5.8C289.63,288.98,289.64,283.18,285.9,283.18z M278.6,293.33c-1.95,0-1.95,3.03,0,3.03      C280.55,296.35,280.55,293.33,278.6,293.33z"/></g></g></g></g></svg>