<?xml version="1.0" ?><svg xmlns="http://www.w3.org/2000/svg" xmlns:xlink="http://www.w3.org/1999/xlink" version="1.1" viewBox="0 0 512 512" style="enable-background:new 0 0 512 512;" xml:space="preserve"><style type="text/css">
	.st0{fill:#231A15;}
	.st1{fill:#FFE000;}
	.st2{fill:#BCA100;}
	.st3{fill:#FC0000;}
	.st4{fill:#AA0000;}
	.st5{fill:#F94343;}
	.st6{fill:#FFFFFF;}
	.st7{fill:#A58E07;}
	.st8{opacity:0.44;}
	.st9{fill:#756204;}
	.st10{opacity:0.64;}
	.st11{opacity:0.38;}
	.st12{fill:#5D5004;}
	.st13{fill:#B7A100;}
	.st14{fill:#1D4DFC;}
	.st15{fill:#143CAF;}
	.st16{opacity:0.59;}
	.st17{opacity:0.52;}
	.st18{fill:#FF7F1F;}
	.st19{fill:#C4570C;}
	.st20{fill:#B29904;}
	.st21{fill:#87720A;}
	.st22{fill:#DDDDDD;}
	.st23{opacity:0.51;}
	.st24{fill:#878787;}
	.st25{fill:#727272;}
	.st26{opacity:0.33;}
	.st27{opacity:0.46;}
	.st28{fill:#25CBF2;}
	.st29{fill:#0A8FA5;}
	.st30{opacity:0.58;}
	.st31{fill:#04889E;}
	.st32{fill:#035A63;}
	.st33{opacity:0.65;}
	.st34{opacity:0.39;}
	.st35{fill:#AB0000;}
	.st36{fill:#1987A1;}
	.st37{fill:#3F1F0A;}
	.st38{fill:#4DEEFF;}
	.st39{fill:#21B9C1;}
	.st40{fill:#BBF9FF;}
	.st41{fill:#64ACAF;}
	.st42{fill:#089FB7;}
	.st43{opacity:0.47;}
	.st44{opacity:0.42;}
	.st45{fill:#DBF7FC;}
	.st46{fill:#B2E7ED;}
	.st47{fill:#0FA2BA;}
	.st48{opacity:0.54;}
	.st49{fill:#8E7716;}
	.st50{fill:#191401;}
	.st51{fill:#382E02;}
	.st52{fill:#605106;}
	.st53{fill:#AFACA0;}
	.st54{fill:#BC0404;}
	.st55{fill:#750000;}
	.st56{fill:#A08B0D;}
	.st57{fill:#5B4C05;}
	.st58{opacity:0.4;}
	.st59{opacity:0.5;}
	.st60{fill:#FF8383;}
	.st61{fill:#FFF0A6;}
	.st62{fill:#E2C227;}
	.st63{fill:#AA9205;}
	.st64{fill:#FFEA71;}
	.st65{opacity:0.22;}
	.st66{fill:#B19B00;}
	.st67{fill:#1989A4;}
	.st68{fill:#13A0B7;}
	.st69{fill:#C4A805;}
	.st70{fill:#FFF3A9;}
	.st71{fill:#846E03;}
	.st72{fill:#2D2502;}
	.st73{opacity:0.36;}
	.st74{fill:#4DD307;}
	.st75{fill:#328402;}
	.st76{fill:#97FF5A;}
	.st77{fill:#7A6500;}
	.st78{fill:#246001;}
	.st79{fill:#359100;}
	.st80{fill:#968022;}
	.st81{fill:#4F420B;}
	.st82{fill:#FFED83;}
	.st83{fill:#BAA335;}
	.st84{fill:#8D0991;}
	.st85{fill:#4B044F;}
	.st86{fill:#CE15CE;}
	.st87{fill:#897502;}
	.st88{fill:#493D01;}
	.st89{fill:#C9C9C9;}
	.st90{fill:#2D280E;}
	.st91{fill:#378C06;}
	.st92{fill:#183A03;}
	.st93{fill:#94FF55;}
	.st94{fill:#2E7F04;}
	.st95{fill:#63AB39;}
	.st96{fill:#AA5F04;}
	.st97{fill:#633502;}
	.st98{fill:#EF9014;}
	.st99{fill:#A05A07;}
	.st100{fill:#05616B;}
	.st101{fill:#033335;}
	.st102{fill:#0E94AA;}
	.st103{fill:#035D66;}
	.st104{opacity:0.27;}
	.st105{opacity:0.43;}
	.st106{fill:#FFF203;}
	.st107{fill:#FFA300;}
	.st108{fill:#2B3030;}
	.st109{opacity:0.28;}
	.st110{fill:#FCD17A;}
	.st111{fill:#AF853A;}
	.st112{opacity:0.31;}
	.st113{fill:#B641FF;}
	.st114{fill:#700FBC;}
	.st115{fill:#F2D0B1;}
	.st116{fill:#AF835F;}
	.st117{fill:#C17540;}
	.st118{fill:#F2BA94;}
	.st119{fill:#592909;}
	.st120{fill:#2B1204;}
	.st121{fill:#894818;}
	.st122{fill:#512609;}
	.st123{fill:#FF7F15;}
	.st124{fill:#A04A0A;}
	.st125{fill:#B7865E;}
	.st126{fill:#70350E;}
	.st127{fill:#3A1805;}
	.st128{fill:#C1521B;}
	.st129{fill:#FFC7AE;}
	.st130{fill:#FF717F;}
	.st131{fill:#6E2F0F;}
	.st132{fill:#AC8675;}
	.st133{opacity:0.25;}
	.st134{opacity:0.32;}
	.st135{fill:#FFFCC5;}
	.st136{fill:#D1CA78;}
	.st137{fill:#D37733;}
	.st138{fill:#A04F18;}
	.st139{fill:#0ABFBA;}
	.st140{fill:#057F79;}
	.st141{fill:#15F9F9;}
	.st142{fill:#09B2AD;}
	.st143{fill:#B2B2B2;}
	.st144{fill:#FFF755;}
	.st145{fill:#BCB121;}
	.st146{fill:#F90368;}
	.st147{opacity:0.49;}
	.st148{fill:#B50857;}
	.st149{fill:#FF76B4;}
	.st150{fill:#F23091;}
	.st151{fill:#FFF800;}
	.st152{fill:#C9BF05;}
	.st153{fill:#FF8500;}
	.st154{fill:#A35507;}
	.st155{fill:#AA6E50;}
	.st156{fill:#723C25;}
	.st157{fill:#EAD4B9;}
	.st158{fill:#AA8D6F;}
	.st159{fill:#B7A8A5;}
	.st160{fill:#84726F;}
	.st161{fill:#77645F;}
	.st162{fill:#51403C;}
	.st163{fill:#EABBA7;}
	.st164{fill:#BC7F69;}
	.st165{fill:#7C5039;}
	.st166{fill:#442619;}
	.st167{fill:#B7AE04;}
	.st168{fill:#BAB108;}
	.st169{fill:#7A7105;}
	.st170{fill:#352B23;}
	.st171{fill:#050403;}
	.st172{fill:#706255;}
	.st173{fill:#44382E;}
	.st174{fill:#634319;}
	.st175{fill:#35210A;}
	.st176{fill:#2D1C08;}
	.st177{fill:#0A0601;}
	.st178{fill:#9E7443;}
	.st179{fill:#704D2A;}
	.st180{fill:#D8A73A;}
	.st181{fill:#A0741C;}
	.st182{fill:#3F2F28;}
	.st183{fill:#211410;}
	.st184{fill:#FF326C;}
	.st185{fill:#BC0749;}
	.st186{fill:#68390E;}
	.st187{fill:#A5632D;}
	.st188{fill:#3D1E05;}
	.st189{fill:#331A06;}
	.st190{fill:#110801;}
	.st191{fill:#160A02;}
	.st192{fill:#663514;}
	.st193{opacity:0.29;}
	.st194{fill:#FC001F;}
	.st195{fill:#AF021F;}
	.st196{fill:#C48622;}
	.st197{fill:#8C5910;}
	.st198{fill:#846D64;}
	.st199{fill:#513B35;}
	.st200{fill:#5B4842;}
	.st201{fill:#332522;}
	.st202{fill:#47332C;}
	.st203{fill:#543E38;}
	.st204{fill:#1E1412;}
	.st205{fill:#604C43;}
	.st206{fill:#D3896C;}
	.st207{fill:#FF001F;}
	.st208{fill:#AF0824;}
	.st209{fill:#A37462;}
	.st210{fill:#5E3E34;}
	.st211{fill:#874A38;}
	.st212{fill:#4C2218;}
	.st213{fill:#5B2B20;}
	.st214{fill:#210C09;}
	.st215{fill:#99001A;}
	.st216{fill:#A08A07;}
	.st217{fill:#A08904;}
	.st218{fill:#5B4C02;}
	.st219{fill:#CECAB7;}
	.st220{fill:#727068;}
	.st221{fill:#42403A;}
	.st222{fill:#B2B0A6;}
	.st223{fill:#726F62;}
	.st224{fill:#6B4F45;}
	.st225{fill:#3A261F;}
	.st226{fill:#777468;}
	.st227{fill:#474436;}
	.st228{fill:#B78B7D;}
	.st229{fill:#845A4E;}
	.st230{fill:#3A372D;}
	.st231{fill:#43CFFF;}
	.st232{fill:#13A0BC;}
</style><g id="_x30_4"><g><path class="st0" d="M318.98,483.78c-3.76,0-7.51-0.22-11.25-0.65c-1.16,0.15-2.36,0.1-3.56-0.18l-61.31-14.31    c-0.91-0.21-1.76-0.54-2.54-0.97c-13.69-4.46-26.32-11.97-37.55-22.34c-2.49-2.3-4.92-4.74-7.21-7.26l-0.17-0.18    c-0.96-1.06-1.95-2.18-2.94-3.36l-0.65-0.77c-1.13-1.36-2.12-2.59-3.01-3.75c-5.63-7.31-10.75-15.55-15.21-24.49    c-2.21-4.43-4.25-9.02-6.08-13.67c-0.01-0.02-0.01-0.03-0.02-0.05c-0.5-1.27-0.99-2.55-1.47-3.85c-0.01-0.03-0.05-0.14-0.06-0.17    c-0.46-1.25-0.91-2.51-1.35-3.79l-0.09-0.26c-0.44-1.28-0.85-2.51-1.25-3.76l-0.14-0.43c-0.38-1.2-0.76-2.42-1.12-3.64l-0.55-1.9    c-0.21-0.75-0.42-1.49-0.62-2.23l-0.45-1.66c-0.12-0.47-0.25-0.94-0.37-1.42l-19.61,0.03c-0.01,0-0.01,0-0.02,0    c-0.87,0-1.72-0.11-2.52-0.32c-12.23-1.05-24.15-4.83-35.48-11.23c-2.52-1.43-5.01-2.98-7.4-4.62l-0.21-0.14    c-0.97-0.67-2.01-1.41-3.06-2.19l-0.68-0.5c-1.24-0.93-2.26-1.73-3.23-2.52c-5.35-4.35-10.52-9.39-15.37-14.98    c-0.66-0.76-1.31-1.53-1.96-2.31c-0.01-0.02-0.03-0.03-0.04-0.05c-5.82-7.01-11.19-14.89-15.97-23.41l-0.1-0.18    c-0.49-0.88-0.95-1.72-1.41-2.58l-0.24-0.44c-0.44-0.82-0.87-1.64-1.29-2.46l-0.29-0.57c-0.41-0.81-0.82-1.62-1.22-2.44l-0.3-0.62    c-0.39-0.81-0.79-1.64-1.18-2.47l-0.27-0.58c-0.4-0.85-0.79-1.71-1.18-2.58l-0.18-0.41c-8.14-18.37-13.71-38.58-16.56-60.06    c-0.2-1.51-0.38-3.03-0.56-4.55l-0.05-0.44c-0.15-1.37-0.29-2.74-0.42-4.12l-0.07-0.75c-0.12-1.32-0.23-2.63-0.33-3.94l-0.06-0.81    c-0.11-1.52-0.21-3.04-0.29-4.57c0-0.03,0-0.07-0.01-0.1c-0.23-4.34-0.35-8.75-0.36-13.08c-0.01-4.84,0.13-9.83,0.42-14.82    c0.08-1.32,0.16-2.59,0.25-3.85l0.01-0.19c0.09-1.2,0.19-2.43,0.29-3.65l0.02-0.2c0.11-1.26,0.23-2.45,0.35-3.64l0.02-0.22    c0-0.01,0.01-0.1,0.01-0.11c0.12-1.17,0.25-2.34,0.39-3.5l0.03-0.25c0.46-3.75,0.98-7.41,1.58-10.93    c5.93-35.16,19.06-65.99,38-89.24c19.51-23.96,43.33-37.6,68.98-39.54c0.7-0.16,1.43-0.24,2.17-0.24l52.1-0.08c0,0,0.01,0,0.01,0    c1.13,0,2.25,0.19,3.29,0.56c30.2,3.49,58.19,23.87,78.12,56.68c4.39-1.9,8.82-3.52,13.26-4.85c15.26-4.58,30.49-5.71,45.3-3.37    c0.75-0.01,1.54,0.08,2.31,0.26l60.46,14.11c1.17,0.27,2.28,0.75,3.26,1.41c32.76,11.69,58.64,40.86,73.05,82.44    c14.39,41.53,15.95,91.72,4.37,141.31c-11.57,49.59-35.18,93.9-66.48,124.77C381.78,469.11,350.03,483.78,318.98,483.78z     M306.52,462.89c0.47,0,0.95,0.03,1.44,0.1c3.63,0.52,7.3,0.78,10.98,0.78c25.77,0,52.63-12.68,76.75-36.47    c28.64-28.25,50.32-69.12,61.04-115.08s9.38-92.21-3.79-130.21c-12.68-36.59-35.01-61.74-62.87-70.83    c-0.55-0.18-1.08-0.41-1.58-0.67l-56.37-13.16c-0.38-0.02-0.77-0.07-1.15-0.14c-12.24-2.16-24.95-1.3-37.77,2.55    c-6.19,1.86-12.4,4.41-18.47,7.58c-4.86,2.54-10.87,0.69-13.46-4.16c-17.34-32.51-42.62-52.46-69.35-54.73    c-0.51-0.04-1-0.12-1.48-0.24l-48.24,0.07c-0.33,0.05-0.67,0.09-1.02,0.11c-42.22,2.39-79.21,48.5-89.94,112.15    c-0.56,3.31-1.04,6.67-1.45,10.06l-0.02,0.18c0,0.01-0.01,0.1-0.01,0.11c-0.13,1.06-0.25,2.13-0.36,3.21l-0.02,0.21    c0,0-0.01,0.1-0.01,0.1c-0.11,1.09-0.22,2.18-0.32,3.28l-0.01,0.14c0,0.02-0.01,0.09-0.01,0.11c-0.1,1.12-0.19,2.25-0.27,3.38    l-0.01,0.18c-0.08,1.12-0.16,2.29-0.22,3.46c-0.27,4.65-0.4,9.24-0.39,13.7c0.01,3.97,0.12,8.01,0.33,12c0,0.04,0,0.08,0.01,0.12    c0.07,1.39,0.17,2.81,0.27,4.22l0.06,0.74c0.09,1.22,0.19,2.43,0.3,3.63l0.07,0.7c0.12,1.26,0.25,2.52,0.39,3.77l0.05,0.42    c0.16,1.39,0.33,2.78,0.51,4.17c2.59,19.6,7.65,37.96,15.01,54.58l0.16,0.37c0.35,0.78,0.7,1.55,1.06,2.31l0.23,0.5    c0.36,0.76,0.71,1.5,1.06,2.23l0.27,0.55c0.36,0.73,0.72,1.46,1.09,2.18l0.26,0.51c0.38,0.73,0.76,1.46,1.14,2.18l0.21,0.4    c0.41,0.76,0.82,1.51,1.24,2.26l0.09,0.16c4.2,7.48,8.87,14.34,13.91,20.42c0.02,0.03,0.04,0.05,0.06,0.07    c0.54,0.65,1.1,1.31,1.67,1.97c4.1,4.73,8.44,8.96,12.9,12.59c0.78,0.63,1.62,1.29,2.65,2.07l0.55,0.41    c0.84,0.62,1.67,1.22,2.52,1.8c0.03,0.02,0.14,0.09,0.17,0.12c1.94,1.33,3.91,2.56,5.91,3.69c9.25,5.23,18.94,8.2,28.78,8.82    c0.39,0.02,0.77,0.07,1.15,0.14l25.73-0.04c0,0,0.01,0,0.02,0c4.7,0,8.77,3.28,9.77,7.87l0.52,2.31c0.2,0.86,0.4,1.72,0.62,2.58    c0,0,0.02,0.1,0.03,0.1l0.11,0.43c0,0.01,0.03,0.12,0.03,0.13l0.14,0.57c0.2,0.78,0.4,1.54,0.6,2.3l0.41,1.51    c0.18,0.66,0.37,1.33,0.56,2l0.5,1.71c0.33,1.1,0.66,2.19,1.01,3.27l0.12,0.38c0.36,1.13,0.73,2.23,1.11,3.34l0.1,0.28    c0.39,1.13,0.79,2.26,1.21,3.38c0.01,0.03,0.05,0.13,0.06,0.16c0.43,1.15,0.87,2.31,1.32,3.45c0.01,0.02,0.01,0.03,0.02,0.05    c1.62,4.11,3.42,8.16,5.35,12.03c3.9,7.82,8.32,14.96,13.16,21.24c0.74,0.96,1.58,2,2.55,3.17l0.54,0.64    c0.85,1,1.67,1.95,2.47,2.82l0.15,0.17c1.9,2.08,3.91,4.11,5.98,6.02c9.52,8.79,20.2,15.02,31.73,18.51    c0.43,0.13,0.84,0.29,1.24,0.46l56.92,13.29C306.33,462.89,306.42,462.89,306.52,462.89z"/></g><g><g><g><path class="st7" d="M393.17,101.67l0.08-0.32l-60.46-14.11c-2.64,4.05-5.53,7.93-8.11,12.03c-2.99,4.76-9.26,3.27-11.3-0.39      l-3.8,16.27c-40.82,25.69-75.77,77.27-90.77,141.55s-6.5,126.01,18.73,167.11l-5.15,22.06c1.77-1.29,3.41-2.51,4.46-3.69      c4.19-4.71,12.03-0.19,10.65,5.73c-0.85,3.65-1.67,7.32-2.35,11l61.31,14.31l0.08-0.32c66.34,9.57,136.82-59.34,159.94-158.39      S456.89,122.46,393.17,101.67z"/></g><g><path class="st1" d="M222.88,443.42c-0.08,0.06-0.15,0.11-0.23,0.17l0.07-0.3C222.77,443.33,222.82,443.38,222.88,443.42z       M236.18,452.82c-0.02,0.12-0.05,0.23-0.08,0.35l1.19,0.28C236.92,453.23,236.55,453.03,236.18,452.82z M413.12,145.93      l29.21,6.82c-3.82-7.16-8.09-13.8-12.81-19.82l-29.2-6.82C405.03,132.13,409.3,138.77,413.12,145.93z M453.87,180.19      c-2.48-7.66-5.37-14.97-8.67-21.83l-29.21-6.82c3.3,6.86,6.2,14.16,8.67,21.83L453.87,180.19z M462.53,220.83      c-1.38-11.97-3.64-23.44-6.71-34.24l-29.21-6.82c3.08,10.8,5.33,22.27,6.71,34.24L462.53,220.83z M463.95,258.79      c0.37-10.19,0.16-20.17-0.63-29.85l-29.21-6.82c0.78,9.68,1,19.66,0.62,29.85L463.95,258.79z M459.93,296.47      c1.88-10.74,3.13-21.38,3.74-31.8l-29.21-6.82c-0.61,10.43-1.86,21.06-3.74,31.8L459.93,296.47z M422.4,324.35l29.21,6.82      c1.89-6.18,3.6-12.49,5.11-18.94c0.78-3.36,1.49-6.72,2.15-10.06l-29.21-6.82c-0.66,3.35-1.36,6.7-2.15,10.06      C426,311.86,424.29,318.17,422.4,324.35z M439.69,363.04c3.51-7.86,6.71-16.04,9.56-24.5l-29.21-6.82      c-2.85,8.47-6.05,16.64-9.56,24.5L439.69,363.04z M422.75,394.74c5.05-7.99,9.75-16.49,14.04-25.44l-29.21-6.82      c-4.29,8.95-8.99,17.44-14.04,25.44L422.75,394.74z M405.52,418.44c5.67-6.79,11.08-14.13,16.13-21.98l-29.21-6.82      c-5.05,7.85-10.45,15.19-16.13,21.98L405.52,418.44z M383.28,440.98c6.99-5.93,13.73-12.64,20.13-20.06l-29.21-6.82      c-6.4,7.41-13.14,14.12-20.13,20.06L383.28,440.98z M312,459c-8.95,3.14-18.03,5.05-27.12,5.55l29.17,6.81      c9.1-0.5,18.19-2.4,27.15-5.55L312,459z M333.18,449.09c-6.39,3.75-12.9,6.87-19.5,9.31l29.2,6.81      c6.6-2.44,13.12-5.56,19.51-9.31L333.18,449.09z M364.76,454.48c5.35-3.29,10.61-7.03,15.73-11.18l-29.21-6.82      c-5.12,4.16-10.38,7.89-15.73,11.18L364.76,454.48z M426.53,129.25c-6.17-7.26-13.01-13.53-20.48-18.64l-29.18-6.81      c7.46,5.11,14.3,11.38,20.46,18.64L426.53,129.25z"/></g><g><ellipse transform="matrix(0.2273 -0.9738 0.9738 0.2273 -39.9251 498.152)" class="st1" cx="293.94" cy="274.23" rx="190.93" ry="127.16"/></g><g class="st10"><path class="st6" d="M413.31,166.29c6.5,18.39,10.47,39.09,11.57,61.15L184.09,404.07c-8.39-15.96-14.5-34.49-17.99-54.75      L413.31,166.29z M424.52,258.58L196.73,423.91c3.97,5.15,8.26,9.85,12.84,14.07l213.28-162.76      C423.58,269.63,424.14,264.08,424.52,258.58z M375.7,397.65c9.56-13.2,18.11-28.09,25.33-44.34L262.05,462.03      c10.99,1.04,22.06-0.04,32.99-3.02L375.7,397.65z M167.08,260.01c-1.32,7.37-2.33,14.68-3.05,21.92l221.71-163.88      c-3.13-3.51-6.43-6.78-9.89-9.77L167.08,260.01z M184.74,200.06c-4.43,10.53-8.29,21.61-11.51,33.15L358.66,96.37      c-6.19-3.32-12.76-5.89-19.65-7.64L184.74,200.06z"/></g><g><ellipse transform="matrix(0.2273 -0.9738 0.9738 0.2273 -39.9251 498.152)" class="st7" cx="293.94" cy="274.23" rx="154.26" ry="102.74"/></g><g><ellipse transform="matrix(0.2273 -0.9738 0.9738 0.2273 -37.2064 503.905)" class="st1" cx="298.93" cy="275.4" rx="142.96" ry="95.21"/></g><g class="st11"><path class="st6" d="M391.64,297.04c-0.19,0.82-0.4,1.64-0.6,2.46L249.11,407.81c-5.32-3.01-10.26-6.76-14.8-11.17      l160.58-116.55C394.04,285.7,392.97,291.36,391.64,297.04z M201.92,322.8c2.5,21.01,8.62,39.92,17.76,55.16l177.5-130.2      c-0.23-22.46-4.39-43.27-11.83-60.77L201.92,322.8z M233.97,188.39l71.82-53C279.32,139.65,253.46,159.13,233.97,188.39z       M215.02,225.17c-3.08,7.95-5.75,16.27-7.92,24.93l143.46-106.04c-4.63-2.82-9.56-5.07-14.75-6.67L215.02,225.17z"/></g><g><path class="st7" d="M336.92,311.4c4.23-18.14-1.48-34.63-28.92-52l-1.22-0.76l12.63-54.12c3.26,0.92,6.75,2.2,10.43,4      l-0.12,12.81c-0.03,12.12,4.78,16.51,9.64,17.65c4.2,0.98,8.48-0.35,11.33-4.59c2.87-17.84-9.34-34.03-28.8-40.52l4.7-20.15      l-8.85-2.07l-4.68,20.05c-23.85-3.82-44.4,9.34-49.4,30.77c-5.16,22.12,5.76,37.27,27.08,50.87l2.64,1.68l-12.77,54.71      c-4.94-1.27-10.18-3.03-15.45-5.55l0.12-12.7c0.08-12.34-4.11-16.36-9.42-17.59c-4.87-1.14-8.53,0.57-11.56,4.53      c-3.55,19.15,10.81,36.14,33.83,41.93l-5.27,22.58l8.85,2.07l5.36-22.96C313.12,345.31,331.88,332.96,336.92,311.4z       M282.01,221.84c3.37-14.43,14.79-20.27,28.47-19.04l-11.84,50.73C285.24,245.04,278.83,235.45,282.01,221.84z M289.57,331.36      l11.93-51.11c14.81,10.03,20.22,18.3,17.18,31.33C315.35,325.85,304.36,332.66,289.57,331.36z"/></g></g><g><g><path class="st12" d="M251.75,355c32.89-31.8,60.82-72.54,71.01-117.59c8.99-39.75,7.18-86.09-13.31-122.19      c-40.77,25.71-75.66,77.26-90.65,141.47c-10.34,44.3-9.51,87.39,0.26,123.35C231.53,373.66,242.87,363.58,251.75,355z"/></g><g><path class="st12" d="M339.63,214.9c-0.13-0.49-0.24-0.98-0.36-1.47c-0.19,1.92-0.39,3.84-0.63,5.76      c0.37-0.63,0.75-1.25,1.14-1.87C339.72,216.52,339.67,215.71,339.63,214.9z"/></g><g><path class="st13" d="M182.32,389.27c0.11,0.02,0.25,0.04,0.38,0.07c1.32-2.74,4.28-3.77,7.29-3.33      c23.37,3.45,46.29-16.06,61.75-31.01c32.89-31.8,60.82-72.54,71.01-117.59c11.25-49.75,5.61-109.85-32.44-147.23      c-52.81,15.84-101.69,75.83-120.2,155.15c-12.28,52.64-8.81,103.56,6.71,142.85C178.78,387.66,180.77,388.18,182.32,389.27z"/></g><g><path class="st13" d="M339.63,214.9c-0.13-0.49-0.24-0.98-0.36-1.47c-0.19,1.92-0.39,3.84-0.63,5.76      c0.37-0.63,0.75-1.25,1.14-1.87C339.72,216.52,339.67,215.71,339.63,214.9z"/></g><g><path class="st6" d="M307.31,111.6l-122.57,88.46c-4.43,10.53-8.29,21.61-11.51,33.15l142.55-105.2      C313.35,122.34,310.54,116.85,307.31,111.6z"/></g><g><path class="st6" d="M322.33,147.17L167.08,260.01c-1.32,7.37-2.33,14.68-3.05,21.92L325.6,162.5      C324.75,157.33,323.67,152.21,322.33,147.17z"/></g><g><path class="st6" d="M166.1,349.32c2.39,13.85,6,26.89,10.72,38.86c1.96-0.52,3.95,0,5.5,1.09c0.11,0.02,0.25,0.04,0.38,0.07      c1.32-2.74,4.28-3.77,7.29-3.33c7.87,1.16,15.69-0.29,23.19-3.29l40.82-29.95c31.9-31.46,58.79-71.36,68.74-115.37      c0.36-1.6,0.71-3.22,1.03-4.84L166.1,349.32z"/></g><g><path class="st12" d="M251.75,355c32.89-31.8,60.82-72.54,71.01-117.59c8.42-37.24,7.38-80.26-9.63-115.23      c-50.52-0.03-101.72,53.62-119.24,128.7c-11.95,51.2-5.44,100.39,14.28,133.59C224.88,379.52,240.34,366.02,251.75,355z"/></g><g><path class="st12" d="M339.63,214.9c-0.13-0.49-0.24-0.98-0.36-1.47c-0.19,1.92-0.39,3.84-0.63,5.76      c0.37-0.63,0.75-1.25,1.14-1.87C339.72,216.52,339.67,215.71,339.63,214.9z"/></g><g><path class="st13" d="M339.63,214.9c-0.13-0.49-0.24-0.98-0.36-1.47c-0.19,1.92-0.39,3.84-0.63,5.76      c0.37-0.63,0.75-1.25,1.14-1.87C339.72,216.52,339.67,215.71,339.63,214.9z"/></g><g><path class="st13" d="M251.75,355c32.89-31.8,60.82-72.54,71.01-117.59c7.45-32.96,7.49-70.46-4.39-102.89      c-47.35-1.22-95.72,48.84-112.15,119.23c-11.28,48.35-4.81,94.76,14.28,125.53C232.4,372.89,243.21,363.25,251.75,355z"/></g><g class="st11"><path class="st6" d="M233.97,188.39l71.82-53C279.32,139.65,253.46,159.13,233.97,188.39z"/></g><g class="st11"><path class="st6" d="M322.33,147.17l-107.31,78c-3.08,7.95-5.75,16.27-7.92,24.93l118.5-87.59      C324.75,157.33,323.67,152.21,322.33,147.17z"/></g><g class="st11"><path class="st6" d="M254.01,352.78c31.9-31.46,58.79-71.36,68.74-115.36c0.36-1.6,0.71-3.22,1.03-4.84L201.92,322.8      c2.5,21.01,8.62,39.92,17.76,55.16L254.01,352.78z"/></g><g><path class="st12" d="M290.75,273.33l2.64,1.68l-10.46,44.82c5.06-6.73,9.82-13.71,14.21-20.89l4.36-18.7      c1.56,1.06,3,2.1,4.36,3.12c3.25-6.36,6.18-12.87,8.76-19.5c-2.05-1.49-4.25-2.98-6.61-4.48l-1.22-0.76l12.63-54.12      c2.5,0.7,5.13,1.62,7.88,2.82c0.28-3.68,0.47-7.38,0.55-11.08c-1.9-0.9-3.88-1.71-5.94-2.4l4.7-20.15l-8.85-2.07l-4.68,20.05      c-23.85-3.82-44.4,9.34-49.4,30.77C258.51,244.58,269.43,259.72,290.75,273.33z M282.01,221.84      c3.37-14.43,14.78-20.27,28.47-19.04l-11.84,50.73C285.24,245.04,278.83,235.45,282.01,221.84z"/></g><g><path class="st12" d="M339.63,214.9c-0.13-0.49-0.24-0.98-0.37-1.47c-0.19,1.94-0.41,3.87-0.65,5.8      c0.38-0.64,0.76-1.28,1.16-1.9C339.72,216.52,339.67,215.71,339.63,214.9z"/></g><g><path class="st12" d="M268.78,337.17c2.52-2.85,4.98-5.76,7.39-8.72c-3.59-1.12-7.29-2.51-11-4.28l0.12-12.7      c0.08-12.34-4.11-16.36-9.42-17.59c-4.87-1.14-8.53,0.57-11.56,4.53C241.27,314.81,251.37,329.61,268.78,337.17z"/></g></g><g><g><path class="st7" d="M192.77,38.49l0-0.28l-52.1,0.08c-1.38,3.81-3,7.54-4.31,11.38c-1.53,4.46-6.94,4.45-9.31,1.85l0.02,14.02      C98.65,94.37,80,143.22,80.08,198.61s18.88,104.19,47.38,132.92l0.03,19.01c1.2-1.39,2.3-2.71,2.94-3.87      c2.52-4.65,9.79-2.47,9.8,2.64c0.01,3.15,0.04,6.3,0.19,9.44l52.83-0.08l0-0.28c56.03-4.92,100.38-74.74,100.26-160.1      S248.82,43.25,192.77,38.49z"/></g><g><path class="st1" d="M119.25,350.38c-0.05,0.06-0.1,0.12-0.15,0.18l0-0.26C119.15,350.32,119.2,350.35,119.25,350.38z       M131.93,355.5c0,0.1,0,0.2,0,0.3l1.02,0C132.61,355.69,132.27,355.6,131.93,355.5z M217.56,70.82l25.17-0.04      c-4.49-5.12-9.26-9.72-14.27-13.74l-25.16,0.04C208.31,61.1,213.07,65.7,217.56,70.82z M257.43,90.99      c-3.49-5.79-7.26-11.2-11.28-16.17l-25.17,0.04c4.02,4.97,7.78,10.38,11.27,16.17L257.43,90.99z M272.31,122.53      c-3.43-9.51-7.47-18.45-12.06-26.69l-25.17,0.04c4.59,8.23,8.63,17.17,12.06,26.69L272.31,122.53z M280.76,153.27      c-1.65-8.4-3.74-16.51-6.24-24.27l-25.18,0.04c2.5,7.76,4.59,15.87,6.24,24.27L280.76,153.27z M284.7,184.82      c-0.52-9.14-1.54-18.06-3.05-26.7l-25.18,0.04c1.5,8.64,2.52,17.56,3.05,26.7L284.7,184.82z M259.4,214.8l25.18-0.04      c0.36-5.41,0.55-10.9,0.54-16.46c0-2.9-0.07-5.77-0.18-8.63l-25.18,0.04c0.11,2.86,0.17,5.73,0.18,8.63      C259.94,203.9,259.76,209.39,259.4,214.8z M280.95,243.09c1.36-7.09,2.41-14.39,3.11-21.85l-25.18,0.04      c-0.7,7.46-1.75,14.76-3.11,21.85L280.95,243.09z M273.19,272.23c2.59-7.5,4.8-15.34,6.59-23.48l-25.18,0.04      c-1.78,8.14-4,15.98-6.59,23.48L273.19,272.23z M263.67,294.91c3.33-6.64,6.34-13.67,8.96-21.05l-25.17,0.04      c-2.62,7.38-5.62,14.42-8.96,21.05L263.67,294.91z M249.83,317.59c4.58-6.19,8.79-12.96,12.6-20.25l-25.17,0.04      c-3.8,7.28-8.02,14.06-12.6,20.25L249.83,317.59z M195.06,345.99c-6.71,4.29-13.76,7.59-21.09,9.74l25.14-0.04      c7.34-2.15,14.4-5.45,21.11-9.74L195.06,345.99z M210.45,333.83c-4.5,4.29-9.22,8.09-14.14,11.35l25.16-0.04      c4.92-3.26,9.65-7.06,14.15-11.35L210.45,333.83z M237.29,332.17c3.74-3.72,7.32-7.78,10.71-12.15l-25.17,0.04      c-3.39,4.38-6.96,8.44-10.7,12.15L237.29,332.17z M225.32,54.62c-6.43-4.75-13.23-8.56-20.31-11.3l-25.15,0.04      c7.08,2.74,13.87,6.55,20.29,11.3L225.32,54.62z"/></g><g><ellipse transform="matrix(1 -1.494091e-03 1.494091e-03 1 -0.2964 0.2166)" class="st1" cx="144.83" cy="198.52" rx="106.71" ry="160.23"/></g><g class="st10"><path class="st6" d="M221.63,87.42c8.84,13.78,16.06,29.92,21.19,47.74L80.01,325.67c-9.92-11.42-18.47-25.4-25.21-41.27      L221.63,87.42z M248.51,160.66L94.15,339.46c4.23,3.44,8.64,6.46,13.19,9.03l143-173.91      C249.86,169.87,249.25,165.23,248.51,160.66z M235.32,283.64c5.27-12.62,9.41-26.42,12.18-41.08l-92.66,115.5      c9.18-1.26,18.02-4.27,26.37-8.8L235.32,283.64z M38.47,211.25c0.33,6.27,0.91,12.44,1.71,18.49L189.85,53.3      c-3.24-2.27-6.56-4.3-9.96-6.08L38.47,211.25z M41.38,158.89c-1.59,9.45-2.62,19.25-3.04,29.29L163.56,40.78      c-5.7-1.52-11.55-2.36-17.52-2.47L41.38,158.89z"/></g><g><ellipse transform="matrix(1 -1.494091e-03 1.494091e-03 1 -0.2964 0.2166)" class="st7" cx="144.83" cy="198.52" rx="86.22" ry="129.46"/></g><g><ellipse transform="matrix(1 -1.494091e-03 1.494091e-03 1 -0.2964 0.223)" class="st1" cx="149.13" cy="198.51" rx="79.9" ry="119.97"/></g><g class="st11"><path class="st6" d="M229.03,198.39c0,0.71-0.01,1.42-0.01,2.13l-95.16,115.73c-4.92-1.44-9.68-3.56-14.24-6.29l108.81-126.04      C228.81,188.67,229.02,193.49,229.03,198.39z M78.98,255.86c6.07,16.68,14.7,30.96,25.1,41.65l120.02-140.44      c-4.5-18.3-11.89-34.51-21.33-47.37L78.98,255.86z M79.36,139.9l48.5-57.08C107.06,91.38,89.66,112.25,79.36,139.9z       M70.94,173.58c-0.99,7.09-1.57,14.4-1.69,21.88L166.1,81.29c-4.33-1.41-8.78-2.3-13.33-2.62L70.94,173.58z"/></g><g><path class="st7" d="M187.08,220.63c-0.02-15.63-7.86-28.01-33.61-36.93l-1.14-0.39l-0.07-46.64c2.84,0.12,5.94,0.5,9.28,1.27      l2.36,10.48c2.3,9.91,7.07,12.57,11.27,12.56c3.62-0.01,6.86-1.92,8.38-5.92c-1.08-15.13-14.16-26.01-31.3-27.58l-0.03-17.37      l-7.63,0.01l0.03,17.28c-20.22,1.45-34.48,16.15-34.45,34.62c0.03,19.06,11.86,29.34,31.89,36.36l2.48,0.87l0.07,47.14      c-4.28-0.09-8.9-0.52-13.69-1.57l-2.34-10.39c-2.3-10.1-6.5-12.57-11.08-12.57c-4.19,0.01-6.86,2.11-8.57,5.92      c0.78,16.32,15.77,27.45,35.69,27.76l0.03,19.46l7.63-0.01l-0.03-19.79C174.15,252.9,187.1,239.21,187.08,220.63z M125.03,158      c-0.02-12.43,8.19-19.4,19.6-21.02l0.07,43.72C132.12,176.33,125.04,169.73,125.03,158z M152.23,246.02l-0.07-44.05      c14.03,5.35,20.03,11.07,20.05,22.3C172.23,236.57,164.56,244.24,152.23,246.02z"/></g></g></g></g></svg>