<?xml version="1.0" ?><svg xmlns="http://www.w3.org/2000/svg" xmlns:xlink="http://www.w3.org/1999/xlink" version="1.1" id="Layer_1" viewBox="0 0 1500 1500" style="enable-background:new 0 0 1500 1500;" xml:space="preserve"><style type="text/css">
	.st0{fill:#221F44;}
	.st1{fill:none;stroke:#C1C2C6;stroke-width:11;stroke-linecap:round;stroke-linejoin:round;stroke-miterlimit:10;}
	.st2{fill:#C1C2C6;}
	.st3{fill:#417FF0;}
	.st4{fill:none;stroke:#69A6FF;stroke-width:8.6186;stroke-miterlimit:10;}
	.st5{fill:none;stroke:#69A6FF;stroke-width:8.214;stroke-miterlimit:10;}
	.st6{fill:#EF4743;}
	.st7{fill:#FFB53D;}
	.st8{fill:#FFFFFF;}
	.st9{fill:none;stroke:#EF4743;stroke-width:8.7777;stroke-miterlimit:10;}
	.st10{fill:none;stroke:#EAA136;stroke-width:9.769;stroke-miterlimit:10;}
	.st11{fill:none;stroke:#221F44;stroke-width:5.5676;stroke-linejoin:round;stroke-miterlimit:10;}
</style><path class="st0" d="M1238.13,390.25l0,137.08l-161.47,0l0-228.48l65.04,0C1201.92,298.85,1238.13,348,1238.13,390.25z"/><line class="st1" x1="1231.14" y1="628.57" x2="1231.14" y2="697.39"/><line class="st1" x1="1265.55" y1="662.98" x2="1196.73" y2="662.98"/><circle class="st2" cx="1278.75" cy="786.25" r="18.25"/><line class="st1" x1="241.33" y1="303.24" x2="241.33" y2="372.57"/><line class="st1" x1="206.67" y1="337.91" x2="276" y2="337.91"/><circle class="st2" cx="204.61" cy="459.66" r="18.39"/><path class="st3" d="M418.56,1213.03V419.46c0-67.1,54.41-121.49,121.51-121.47l602.83,0.23c0,0-35.06,8.19-51.99,36  c-14.66,24.09-14.01,53.2-14.01,53.2v705.39c0,66.39-53.82,120.22-120.22,120.22H418.56z"/><path class="st0" d="M197.25,1090.44c0.22-59.75,28.78-84.28,46.77-84.28h632.22c0,0-51.73,17.76-39.57,94.36  c14.79,93.16,100.64,112.5,100.64,112.5H318.76C251.65,1213.03,197.03,1150.2,197.25,1090.44z"/><line class="st4" x1="557.34" y1="470.04" x2="642.12" y2="470.04"/><line class="st4" x1="682.81" y1="470.04" x2="916.8" y2="470.04"/><line class="st4" x1="557.34" y1="586.07" x2="916.8" y2="586.07"/><line class="st4" x1="825.24" y1="701.06" x2="916.8" y2="701.06"/><line class="st5" x1="558.25" y1="701.06" x2="769.93" y2="701.06"/><g><g><path class="st3" d="M-49.56,1294.28c1.93,0,1.93-3,0-3C-51.49,1291.28-51.49,1294.28-49.56,1294.28L-49.56,1294.28z"/></g></g><g><polygon class="st6" points="367.04,543.42 367.04,641.92 420.02,609.88 473,641.92 473,538.91  "/><g><g><path class="st7" d="M379.59,519.54c0-23.1,18.72-41.82,41.82-41.82c23.1,0,41.82,18.72,41.82,41.82s-18.72,41.82-41.82,41.82     C398.31,561.36,379.59,542.63,379.59,519.54"/><path class="st7" d="M350.71,482.98c13.58-18.69,39.73-22.83,58.41-9.25c18.68,13.57,22.83,39.73,9.25,58.41     c-13.58,18.69-39.73,22.83-58.41,9.25C341.27,527.81,337.13,501.66,350.71,482.98"/><path class="st7" d="M348.83,436.42c21.96-7.14,45.56,4.88,52.69,26.85c7.14,21.96-4.88,45.56-26.85,52.69     c-21.97,7.14-45.56-4.89-52.7-26.85C314.84,467.15,326.86,443.56,348.83,436.42"/><path class="st7" d="M374.68,397.65c21.96,7.14,33.98,30.73,26.85,52.69c-7.14,21.96-30.73,33.99-52.7,26.85     c-21.97-7.14-33.99-30.73-26.85-52.69C329.12,402.54,352.71,390.52,374.68,397.65"/><path class="st7" d="M418.37,381.48c13.58,18.69,9.43,44.84-9.25,58.41c-18.68,13.57-44.84,9.43-58.41-9.25     c-13.57-18.69-9.43-44.84,9.25-58.41S404.8,362.8,418.37,381.48"/><path class="st7" d="M463.23,394.08c0,23.1-18.72,41.82-41.82,41.82c-23.1,0-41.82-18.72-41.82-41.82s18.72-41.82,41.82-41.82     C444.5,352.26,463.23,370.99,463.23,394.08"/><path class="st7" d="M492.11,430.64c-13.58,18.69-39.73,22.83-58.41,9.25c-18.68-13.57-22.83-39.73-9.25-58.41     c13.58-18.69,39.73-22.83,58.41-9.25C501.55,385.81,505.69,411.96,492.11,430.64"/><path class="st7" d="M493.99,477.2c-21.97,7.14-45.56-4.88-52.69-26.85c-7.14-21.96,4.88-45.56,26.85-52.69     c21.97-7.14,45.56,4.89,52.7,26.85C527.98,446.47,515.96,470.06,493.99,477.2"/><path class="st7" d="M468.14,515.97c-21.96-7.14-33.98-30.73-26.85-52.69c7.14-21.96,30.73-33.99,52.69-26.85     c21.97,7.14,33.99,30.73,26.85,52.69C513.7,511.08,490.11,523.1,468.14,515.97"/><path class="st7" d="M424.45,532.14c-13.58-18.69-9.43-44.84,9.25-58.41c18.68-13.57,44.84-9.43,58.41,9.25     c13.57,18.69,9.43,44.84-9.25,58.41S438.02,550.82,424.45,532.14"/></g><circle class="st8" cx="420.8" cy="457.49" r="73.98"/><polyline class="st9" points="384.5,453.68 412.93,485.6 459.02,428.08   "/></g></g><g><path class="st7" d="M202.34,837.87c41.75-46.39,92.78-60.31,106.7-60.31s208.76,0,245.87,0s92.78,51.03,97.42,60.31H202.34z"/><path class="st7" d="M652.33,842.51c-41.75,46.39-92.78,60.31-106.7,60.31s-208.76,0-245.87,0s-92.78-51.03-97.42-60.31H652.33z"/><line class="st10" x1="202.34" y1="840.1" x2="767.28" y2="840.1"/></g><rect x="974.73" y="956.73" class="st7" width="203.3" height="56.92"/><path class="st7" d="M1230.88,1261.67H921.87v-207.36c0,0,50.4,0,64.43,0c14.02,0,37.22-26.96,37.22-40.66c12.43,0,95.1,0,101.65,0  c0.98,15.93,28.99,40.66,39.48,40.66s66.23,0,66.23,0V1261.67z"/><rect x="975.24" y="1101.45" class="st10" width="203.3" height="105.71"/><line class="st10" x1="1029.85" y1="1155.96" x2="1125.62" y2="1155.96"/><path class="st11" d="M788.75,862.18c27.08-57.55,60.09-73.63,46.55-5.92c38.93-58.39,75.41-53.88,44.9,11.57  c50.73-79.27,28.73-28.49,56.66-36.11"/></svg>