<?xml version="1.0" ?><svg xmlns="http://www.w3.org/2000/svg" xmlns:xlink="http://www.w3.org/1999/xlink" version="1.1" viewBox="0 0 512 512" style="enable-background:new 0 0 512 512;" xml:space="preserve"><style type="text/css">
	.st0{fill:#231A15;}
	.st1{fill:#FFE000;}
	.st2{fill:#BCA100;}
	.st3{fill:#FC0000;}
	.st4{fill:#AA0000;}
	.st5{fill:#F94343;}
	.st6{fill:#FFFFFF;}
	.st7{fill:#A58E07;}
	.st8{opacity:0.44;}
	.st9{fill:#756204;}
	.st10{opacity:0.64;}
	.st11{opacity:0.38;}
	.st12{fill:#5D5004;}
	.st13{fill:#B7A100;}
	.st14{fill:#1D4DFC;}
	.st15{fill:#143CAF;}
	.st16{opacity:0.59;}
	.st17{opacity:0.52;}
	.st18{fill:#FF7F1F;}
	.st19{fill:#C4570C;}
	.st20{fill:#B29904;}
	.st21{fill:#87720A;}
	.st22{fill:#DDDDDD;}
	.st23{opacity:0.51;}
	.st24{fill:#878787;}
	.st25{fill:#727272;}
	.st26{opacity:0.33;}
	.st27{opacity:0.46;}
	.st28{fill:#25CBF2;}
	.st29{fill:#0A8FA5;}
	.st30{opacity:0.58;}
	.st31{fill:#04889E;}
	.st32{fill:#035A63;}
	.st33{opacity:0.65;}
	.st34{opacity:0.39;}
	.st35{fill:#AB0000;}
	.st36{fill:#1987A1;}
	.st37{fill:#3F1F0A;}
	.st38{fill:#4DEEFF;}
	.st39{fill:#21B9C1;}
	.st40{fill:#BBF9FF;}
	.st41{fill:#64ACAF;}
	.st42{fill:#089FB7;}
	.st43{opacity:0.47;}
	.st44{opacity:0.42;}
	.st45{fill:#DBF7FC;}
	.st46{fill:#B2E7ED;}
	.st47{fill:#0FA2BA;}
	.st48{opacity:0.54;}
	.st49{fill:#8E7716;}
	.st50{fill:#191401;}
	.st51{fill:#382E02;}
	.st52{fill:#605106;}
	.st53{fill:#AFACA0;}
	.st54{fill:#BC0404;}
	.st55{fill:#750000;}
	.st56{fill:#A08B0D;}
	.st57{fill:#5B4C05;}
	.st58{opacity:0.4;}
	.st59{opacity:0.5;}
	.st60{fill:#FF8383;}
	.st61{fill:#FFF0A6;}
	.st62{fill:#E2C227;}
	.st63{fill:#AA9205;}
	.st64{fill:#FFEA71;}
	.st65{opacity:0.22;}
	.st66{fill:#B19B00;}
	.st67{fill:#1989A4;}
	.st68{fill:#13A0B7;}
	.st69{fill:#C4A805;}
	.st70{fill:#FFF3A9;}
	.st71{fill:#846E03;}
	.st72{fill:#2D2502;}
	.st73{opacity:0.36;}
	.st74{fill:#4DD307;}
	.st75{fill:#328402;}
	.st76{fill:#97FF5A;}
	.st77{fill:#7A6500;}
	.st78{fill:#246001;}
	.st79{fill:#359100;}
	.st80{fill:#968022;}
	.st81{fill:#4F420B;}
	.st82{fill:#FFED83;}
	.st83{fill:#BAA335;}
	.st84{fill:#8D0991;}
	.st85{fill:#4B044F;}
	.st86{fill:#CE15CE;}
	.st87{fill:#897502;}
	.st88{fill:#493D01;}
	.st89{fill:#C9C9C9;}
	.st90{fill:#2D280E;}
	.st91{fill:#378C06;}
	.st92{fill:#183A03;}
	.st93{fill:#94FF55;}
	.st94{fill:#2E7F04;}
	.st95{fill:#63AB39;}
	.st96{fill:#AA5F04;}
	.st97{fill:#633502;}
	.st98{fill:#EF9014;}
	.st99{fill:#A05A07;}
	.st100{fill:#05616B;}
	.st101{fill:#033335;}
	.st102{fill:#0E94AA;}
	.st103{fill:#035D66;}
	.st104{opacity:0.27;}
	.st105{opacity:0.43;}
	.st106{fill:#FFF203;}
	.st107{fill:#FFA300;}
	.st108{fill:#2B3030;}
	.st109{opacity:0.28;}
	.st110{fill:#FCD17A;}
	.st111{fill:#AF853A;}
	.st112{opacity:0.31;}
	.st113{fill:#B641FF;}
	.st114{fill:#700FBC;}
	.st115{fill:#F2D0B1;}
	.st116{fill:#AF835F;}
	.st117{fill:#C17540;}
	.st118{fill:#F2BA94;}
	.st119{fill:#592909;}
	.st120{fill:#2B1204;}
	.st121{fill:#894818;}
	.st122{fill:#512609;}
	.st123{fill:#FF7F15;}
	.st124{fill:#A04A0A;}
	.st125{fill:#B7865E;}
	.st126{fill:#70350E;}
	.st127{fill:#3A1805;}
	.st128{fill:#C1521B;}
	.st129{fill:#FFC7AE;}
	.st130{fill:#FF717F;}
	.st131{fill:#6E2F0F;}
	.st132{fill:#AC8675;}
	.st133{opacity:0.25;}
	.st134{opacity:0.32;}
	.st135{fill:#FFFCC5;}
	.st136{fill:#D1CA78;}
	.st137{fill:#D37733;}
	.st138{fill:#A04F18;}
	.st139{fill:#0ABFBA;}
	.st140{fill:#057F79;}
	.st141{fill:#15F9F9;}
	.st142{fill:#09B2AD;}
	.st143{fill:#B2B2B2;}
	.st144{fill:#FFF755;}
	.st145{fill:#BCB121;}
	.st146{fill:#F90368;}
	.st147{opacity:0.49;}
	.st148{fill:#B50857;}
	.st149{fill:#FF76B4;}
	.st150{fill:#F23091;}
	.st151{fill:#FFF800;}
	.st152{fill:#C9BF05;}
	.st153{fill:#FF8500;}
	.st154{fill:#A35507;}
	.st155{fill:#AA6E50;}
	.st156{fill:#723C25;}
	.st157{fill:#EAD4B9;}
	.st158{fill:#AA8D6F;}
	.st159{fill:#B7A8A5;}
	.st160{fill:#84726F;}
	.st161{fill:#77645F;}
	.st162{fill:#51403C;}
	.st163{fill:#EABBA7;}
	.st164{fill:#BC7F69;}
	.st165{fill:#7C5039;}
	.st166{fill:#442619;}
	.st167{fill:#B7AE04;}
	.st168{fill:#BAB108;}
	.st169{fill:#7A7105;}
	.st170{fill:#352B23;}
	.st171{fill:#050403;}
	.st172{fill:#706255;}
	.st173{fill:#44382E;}
	.st174{fill:#634319;}
	.st175{fill:#35210A;}
	.st176{fill:#2D1C08;}
	.st177{fill:#0A0601;}
	.st178{fill:#9E7443;}
	.st179{fill:#704D2A;}
	.st180{fill:#D8A73A;}
	.st181{fill:#A0741C;}
	.st182{fill:#3F2F28;}
	.st183{fill:#211410;}
	.st184{fill:#FF326C;}
	.st185{fill:#BC0749;}
	.st186{fill:#68390E;}
	.st187{fill:#A5632D;}
	.st188{fill:#3D1E05;}
	.st189{fill:#331A06;}
	.st190{fill:#110801;}
	.st191{fill:#160A02;}
	.st192{fill:#663514;}
	.st193{opacity:0.29;}
	.st194{fill:#FC001F;}
	.st195{fill:#AF021F;}
	.st196{fill:#C48622;}
	.st197{fill:#8C5910;}
	.st198{fill:#846D64;}
	.st199{fill:#513B35;}
	.st200{fill:#5B4842;}
	.st201{fill:#332522;}
	.st202{fill:#47332C;}
	.st203{fill:#543E38;}
	.st204{fill:#1E1412;}
	.st205{fill:#604C43;}
	.st206{fill:#D3896C;}
	.st207{fill:#FF001F;}
	.st208{fill:#AF0824;}
	.st209{fill:#A37462;}
	.st210{fill:#5E3E34;}
	.st211{fill:#874A38;}
	.st212{fill:#4C2218;}
	.st213{fill:#5B2B20;}
	.st214{fill:#210C09;}
	.st215{fill:#99001A;}
	.st216{fill:#A08A07;}
	.st217{fill:#A08904;}
	.st218{fill:#5B4C02;}
	.st219{fill:#CECAB7;}
	.st220{fill:#727068;}
	.st221{fill:#42403A;}
	.st222{fill:#B2B0A6;}
	.st223{fill:#726F62;}
	.st224{fill:#6B4F45;}
	.st225{fill:#3A261F;}
	.st226{fill:#777468;}
	.st227{fill:#474436;}
	.st228{fill:#B78B7D;}
	.st229{fill:#845A4E;}
	.st230{fill:#3A372D;}
	.st231{fill:#43CFFF;}
	.st232{fill:#13A0BC;}
</style><g id="_x33_3"><g><path class="st0" d="M139.93,460.14c-0.44,0-0.81-0.04-1.18-0.07c-0.12-0.01-0.24-0.02-0.35-0.04c0,0-0.01,0-0.01,0    c-0.2,0.02-0.44,0.04-0.69,0.05c-0.23,0.01-0.46,0.02-0.68,0.03c-0.18,0-0.36,0-0.54,0l0,0c-0.34-0.01-0.67-0.04-1.01-0.08    c-0.32-0.04-0.63-0.09-0.94-0.15c-0.33-0.06-0.65-0.14-0.97-0.24c-0.64-0.19-1.27-0.43-1.87-0.74c-0.39-0.2-0.79-0.43-1.14-0.66    c-1.08-0.72-2.01-1.62-2.76-2.66c-0.64-0.91-1.13-1.86-1.51-2.88c-0.07-0.18-0.14-0.39-0.19-0.56c-0.21-0.66-0.38-1.42-0.49-2.2    l-0.06-0.44c-0.07-0.6-0.1-1.23-0.1-1.84c0-0.08,0-0.24,0.01-0.41c0.01-0.44,0.03-0.92,0.08-1.43l0.04-0.43    c0.04-0.41,0.1-0.87,0.17-1.33l0.08-0.5c0.08-0.45,0.16-0.89,0.25-1.35c0.04-0.21,0.09-0.43,0.14-0.65    c0.08-0.39,0.18-0.79,0.28-1.21c0.07-0.27,0.14-0.54,0.21-0.81c0.07-0.27,0.15-0.55,0.23-0.83c0.11-0.41,0.23-0.83,0.36-1.26    l0.23-0.77c2.06-6.77,5.72-15.99,11.18-28.18c1.28-2.86,2.67-5.89,4.11-9c3.12-6.71,6.71-14.19,10.65-22.21l1.59-3.23    c4.77-9.63,10.09-20.13,15.82-31.21c3.16-6.12,6.43-12.38,9.72-18.62l2.38-4.5c0.2-0.37,0.39-0.73,0.58-1.09    c-4.28,0.05-9.13,0.06-14.33-0.02l-0.14,0c-0.01,0-0.1,0-0.11,0c-0.71-0.01-1.43-0.03-2.16-0.04l-0.14,0    c-1.63-0.04-3.22-0.08-4.84-0.13l-0.37-0.01c-0.65-0.02-1.34-0.05-2.03-0.07l-0.45-0.02c-0.72-0.03-1.43-0.06-2.14-0.09    l-0.35-0.02c-0.78-0.03-1.6-0.07-2.43-0.12l-0.1,0c-0.77-0.04-1.52-0.08-2.27-0.12l-3.12-0.19c-0.69-0.05-1.39-0.09-2.09-0.14    l-0.32-0.02c-0.83-0.06-1.64-0.12-2.45-0.19l-0.51-0.04c-0.66-0.05-1.29-0.11-1.92-0.17l-0.75-0.07    c-0.57-0.05-1.16-0.11-1.74-0.17l-0.73-0.07c-0.72-0.07-1.48-0.15-2.23-0.24c-0.03,0-0.12-0.01-0.15-0.02    c-0.79-0.09-1.58-0.18-2.36-0.28l-0.63-0.08c-0.62-0.08-1.18-0.15-1.74-0.22l-0.82-0.11c-0.53-0.07-1.1-0.15-1.66-0.23l-0.65-0.09    c-0.79-0.12-1.55-0.24-2.31-0.36l-0.23-0.04c-0.74-0.12-1.4-0.23-2.05-0.35l-0.72-0.13c-0.52-0.09-1.05-0.19-1.57-0.29l-0.76-0.15    c-0.55-0.11-1.1-0.22-1.64-0.34l-0.55-0.12c-0.74-0.16-1.46-0.32-2.17-0.49l-0.46-0.11c-0.59-0.14-1.14-0.28-1.68-0.41l-0.73-0.19    c-0.45-0.12-0.94-0.25-1.42-0.38l-0.68-0.19c-0.56-0.16-1.13-0.33-1.68-0.5l-0.41-0.13c-0.61-0.19-1.28-0.41-1.93-0.64l-0.53-0.19    c-0.47-0.17-0.95-0.34-1.43-0.52l-0.61-0.24c-0.47-0.18-0.92-0.36-1.36-0.55l-0.55-0.23c-0.65-0.28-1.27-0.56-1.86-0.84    c-3.39-1.62-6.19-4.19-8.09-7.41c-1.61-2.73-2.6-5.95-2.94-9.57c-0.21-2.2-0.18-4.6,0.09-7.15c0.38-3.63,1.25-7.74,2.6-12.22    c0.49-1.62,1.05-3.34,1.68-5.11c3-8.47,7.6-18.56,13.68-29.98c1.44-2.7,2.98-5.52,4.59-8.37c3.35-5.96,7.09-12.3,11.13-18.86    c0.53-0.86,1.06-1.71,1.58-2.55c1.05-1.68,2.08-3.34,3.11-4.95c1.53-2.42,3.03-4.75,4.48-6.98c1.44-2.23,2.84-4.34,4.15-6.33    c0.08-0.13,0.17-0.25,0.25-0.38c-1.05,0.05-2.13,0.11-3.22,0.16c-1.14,0.05-2.3,0.1-3.47,0.15s-2.37,0.09-3.58,0.13l-1.83,0.05    c-1.23,0.03-2.47,0.06-3.71,0.09c-1.25,0.02-2.5,0.04-3.77,0.06c-1.27,0.01-2.54,0.02-3.8,0.02c-33.82-0.02-43.22-4.87-47.96-9.6    c-10.33-10.33,0.17-27.71,4.13-34.25c1.03-1.71,2.17-3.5,3.38-5.31c10.29-15.43,40.04-51.31,58.28-57.38    c3.16-2.66,9.87-8.09,17.41-12.87c5.63-3.57,21.72-13.78,34.43-8.53c20.83-1.45,80.07-5.41,136.36-7.64    c33.72-1.34,60.93-1.83,80.87-1.48c37.88,0.67,43.75,4.15,47.48,8.63c7.23,8.67,1.32,21.72-9.77,38.63    c-7.85,11.96-19.58,27.51-34.87,46.2c-12.6,15.4-25.62,30.49-35.69,41.94c4.47-0.43,9.27-0.81,14.21-1.07    c31.51-1.68,51.76,2.17,61.91,11.77c5.76,5.45,8.29,12.58,7.3,20.62c-0.91,7.47-6.42,19.36-40.33,50.88    c-20.41,18.97-48.53,42.56-81.34,68.23C275.35,379.9,207.26,428.54,185.27,438C150.35,458.08,143.25,460.14,139.93,460.14z     M148.55,453.83c0,0.01-0.01,0.01-0.01,0.02C148.55,453.85,148.55,453.84,148.55,453.83z M135.6,440.26c-0.01,0-0.02,0-0.03,0.01    L135.6,440.26z M200.5,298.12c3.41,0,6.61,1.75,8.45,4.65c1.94,3.06,2.07,6.93,0.34,10.12c-0.01,0.01-1.41,2.6-3.8,7.07    l-1.74,3.27c-0.94,1.76-1.98,3.72-3.11,5.85l-2.36,4.46c-3.26,6.19-6.51,12.41-9.65,18.48c-5.68,10.98-10.94,21.38-15.66,30.9    l-1.57,3.19c-3.88,7.89-7.4,15.23-10.46,21.81c-1.41,3.03-2.75,5.97-4,8.75c-3.22,7.19-5.8,13.33-7.71,18.36    c7.62-3.98,17.73-9.56,26.61-14.67c0.38-0.22,0.78-0.41,1.18-0.58c15.02-6.18,74.33-46.56,138.68-96.83    c88.15-68.87,113.96-99.93,115.29-106.74c0.22-1.84-0.25-2.69-1.2-3.59c-10.55-9.97-57.56-7.06-86.01-1.95    c-4.22,0.75-8.45-1.26-10.52-5.01c-2.07-3.75-1.52-8.41,1.37-11.57c0.24-0.26,24.39-26.73,48.43-55.76    c33.31-40.21,43.44-57.61,46.52-64.54c-9.63-1.57-37.12-3.35-115.34-0.1c-57.14,2.38-115.98,6.39-132.65,7.57    c-2.2,0.16-4.37-0.42-6.2-1.62c-1.55-0.15-7.24,0.99-18.09,8.21c-8.03,5.34-14.48,11.04-14.76,11.28    c-1.55,1.37-3.47,2.22-5.51,2.45c-7.02,2.24-32.36,26.73-47.49,49.41c-1.05,1.57-2.02,3.1-2.91,4.56    c-3.17,5.25-4.56,8.6-5.16,10.53c3.48,1.15,12.11,2.97,31.89,2.98c1.2,0,2.4-0.01,3.6-0.02c1.19-0.01,2.39-0.03,3.58-0.05    c1.19-0.02,2.37-0.05,3.55-0.08l1.75-0.05c1.16-0.04,2.31-0.08,3.44-0.12s2.25-0.09,3.34-0.14c1.1-0.05,2.17-0.1,3.22-0.16    c4.04-0.21,8.16-0.46,12.23-0.76l2.08-0.16c0.96-0.07,1.82-0.14,2.56-0.2l1.32-0.11c1.08-0.09,1.69-0.15,1.71-0.15    c3.9-0.37,7.66,1.57,9.61,4.97c1.95,3.4,1.74,7.62-0.54,10.81c-0.02,0.03-0.68,0.95-1.85,2.63l-1.38,1.98    c-2.74,3.96-5.57,8.14-8.4,12.41c-1.29,1.94-2.64,4-4.05,6.17c-1.41,2.17-2.86,4.44-4.36,6.79c-0.99,1.57-2,3.18-3.02,4.81    c-0.51,0.82-1.02,1.64-1.53,2.48c-3.9,6.33-7.51,12.45-10.73,18.18c-1.53,2.72-3,5.4-4.37,7.97    c-5.61,10.54-9.81,19.71-12.48,27.25c-0.52,1.46-0.98,2.87-1.38,4.19c-0.99,3.28-1.61,6.15-1.86,8.53    c-0.13,1.24-0.15,2.33-0.07,3.22c0.04,0.47,0.11,0.8,0.17,1c0.23,0.11,0.47,0.21,0.71,0.32l0.35,0.15c0.31,0.13,0.6,0.25,0.9,0.37    l0.45,0.17c0.33,0.13,0.66,0.25,0.99,0.36l0.39,0.14c0.5,0.17,0.98,0.33,1.47,0.48l0.27,0.08c0.43,0.13,0.86,0.26,1.3,0.39    l0.51,0.14c0.41,0.12,0.79,0.22,1.16,0.31l0.58,0.15c0.46,0.12,0.9,0.23,1.35,0.33l0.4,0.1c0.6,0.14,1.2,0.27,1.8,0.4l0.45,0.09    c0.5,0.11,0.97,0.2,1.44,0.29l0.63,0.12c0.48,0.09,0.93,0.18,1.37,0.26l0.63,0.11c0.59,0.1,1.17,0.2,1.76,0.3l0.2,0.03    c0.74,0.12,1.42,0.22,2.11,0.33l0.62,0.09c0.49,0.07,0.98,0.14,1.48,0.21l0.72,0.1c0.52,0.07,1.03,0.13,1.54,0.2    c0.01,0,0.1,0.01,0.11,0.01l0.54,0.07c0.72,0.09,1.44,0.17,2.17,0.25c0.02,0,0.11,0.01,0.14,0.01c0.69,0.08,1.37,0.15,2.06,0.22    l0.66,0.07c0.53,0.05,1.07,0.1,1.61,0.15l0.7,0.06c0.59,0.05,1.18,0.1,1.76,0.15l0.54,0.05c0.7,0.06,1.47,0.12,2.23,0.17    l0.31,0.02c0.67,0.05,1.33,0.09,1.99,0.14l2.93,0.18c0.72,0.04,1.43,0.08,2.14,0.12l0.1,0c0.8,0.04,1.59,0.08,2.38,0.11l0.25,0.01    c0.71,0.03,1.38,0.06,2.05,0.08l0.39,0.01c0.71,0.03,1.36,0.05,2.01,0.07l0.27,0.01c1.6,0.05,3.13,0.09,4.63,0.12l0.07,0    c0.02,0,0.09,0,0.11,0c0.69,0.01,1.38,0.03,2.06,0.04l0.15,0c0.02,0,0.1,0,0.12,0c16.94,0.27,30.29-0.46,30.43-0.46    C200.13,298.13,200.31,298.12,200.5,298.12z M79.34,165.13L79.34,165.13L79.34,165.13z M136.59,101.59L136.59,101.59    c0.01,0,0.02,0,0.03,0C136.61,101.59,136.6,101.59,136.59,101.59z M434.14,74.9L434.14,74.9L434.14,74.9z"/></g><g><g><path class="st77" d="M342,200.81c0,0,109.58-119.97,98.05-133.81c-10.57-12.69-223.76,1.76-259.18,4.26     c-12.2-8.77-44.98,20.35-44.98,20.35l10.95,2.35c-20.41,21.28-41.68,51.12-34.4,58.4c11.54,11.54,84.21,4.61,84.21,4.61     s-78.44,109.58-51.91,122.27c26.53,12.69,95.74,8.87,95.74,8.87s-53.8,99.2-63.55,131.88l-5.08,2.03c0,0-35.96,27.71-32.14,28.08     c3.82,0.37,41.11-21.09,41.11-21.09l0,0c36.35-14.96,256.07-178.77,260.08-211.54C445.21,182.24,342,200.81,342,200.81z"/></g><g><g><path class="st1" d="M135.9,91.62c0,0,252.62-18.46,264.16-4.61C411.59,100.85,302,220.81,302,220.81s103.21-18.57,98.9,16.67      S142.82,459.52,135.9,449.75c-6.92-9.77,64.6-141.62,64.6-141.62s-69.21,3.82-95.74-8.87s51.91-122.27,51.91-122.27      s-72.67,6.92-84.21-4.61S121.05,92.66,135.9,91.62z"/></g><g><path class="st2" d="M400.9,237.48c4.31-35.24-98.9-16.67-98.9-16.67S411.59,100.85,400.05,87c-2.92-3.5-21.26-4.93-47.04-5.12      c6.36,6.19,11.17,15.52,1.73,26.72c-17.36,20.61-108,138.96-108,138.96s105.11-17.15,103.18,8.43      c-1.93,25.58-203.4,175.99-212.6,182.76c-1.79,5.68-2.42,9.6-1.43,11C142.82,459.52,396.59,272.72,400.9,237.48z"/></g><g class="st23"><path class="st6" d="M145.36,446.89c-5.41,2.79-8.75,3.87-9.46,2.86c-6.92-9.77,64.6-141.62,64.6-141.62      c5.76-1.48,18.29-8.19,21.18,0.91C224.32,317.36,160.08,411.62,145.36,446.89z M178.19,308.66c-18.75-1.49-42.91-8-47.16-29.66      c-6.75-34.4,52.02-102.02,52.02-102.02h-26.39c0,0-78.44,109.58-51.91,122.27C121.58,307.3,155.57,308.71,178.19,308.66z       M142.61,108.6C177.32,89.92,400.05,87,400.05,87l-4.88-2.23c-37.29-9.37-259.28,6.85-259.28,6.85      c-14.85,1.04-74.98,69.21-63.44,80.75c11.54,11.54,84.21,4.61,84.21,4.61s-47.8-3.41-63.23-7.26      C78,165.86,107.89,127.29,142.61,108.6z"/></g></g></g></g></svg>